<?xml version="1.0" standalone="no"?>
<!DOCTYPE svg PUBLIC "-//W3C//DTD SVG 20010904//EN"
 "http://www.w3.org/TR/2001/REC-SVG-20010904/DTD/svg10.dtd">
<svg version="1.0" xmlns="http://www.w3.org/2000/svg"
 width="800.000000pt" height="345.000000pt" viewBox="0 0 800.000000 345.000000"
 preserveAspectRatio="xMidYMid meet">

<g transform="translate(0.000000,345.000000) scale(0.100000,-0.100000)"
fill="#000000" stroke="none">
<path d="M3506 3080 c-2 -8 -7 -28 -11 -45 -25 -117 -208 -383 -285 -415 -41
-17 -38 -32 5 -24 19 3 35 3 35 0 0 -13 -95 -66 -118 -66 -23 0 -24 -3 -19
-37 4 -21 14 -43 23 -50 15 -11 15 -15 -5 -46 -55 -90 -155 -157 -234 -157
-42 0 -24 -16 33 -30 58 -14 58 -11 7 -123 -18 -41 -46 -82 -70 -103 -36 -33
-43 -35 -92 -32 -60 3 -61 -3 -5 -32 49 -25 88 -26 97 -2 4 9 23 44 42 77 52
87 68 123 81 180 13 61 13 60 72 108 65 52 102 116 95 166 -4 36 10 71 30 71
13 0 56 49 81 93 24 42 27 46 76 102 31 37 136 198 136 210 0 3 11 28 25 57
27 56 30 75 15 98 -8 13 -9 13 -14 0z"/>
<path d="M3238 2848 c-20 -24 -70 -81 -113 -128 -112 -124 -266 -316 -329
-410 -67 -99 -151 -262 -199 -386 -47 -119 -57 -172 -14 -69 116 273 202 408
486 764 64 80 133 168 155 195 21 28 43 57 49 64 5 6 7 12 4 12 -2 0 -20 -19
-39 -42z"/>
<path d="M2730 2340 c-12 -7 -12 -12 -3 -21 10 -10 14 -9 19 5 8 22 2 27 -16
16z"/>
<path d="M2658 2215 c-3 -14 -1 -28 3 -31 5 -3 9 9 9 25 0 38 -6 40 -12 6z"/>
<path d="M2566 1981 c-4 -7 -5 -15 -2 -18 9 -9 19 4 14 18 -4 11 -6 11 -12 0z"/>
<path d="M2810 1844 c-55 -40 -116 -58 -167 -50 l-38 6 40 -21 c25 -14 59 -22
92 -23 28 0 50 -3 48 -7 -8 -12 -136 -41 -160 -37 -14 3 -25 1 -25 -4 0 -14
65 -38 102 -38 25 0 30 -3 18 -10 -8 -6 -33 -8 -55 -6 -38 5 -38 5 -12 -6 31
-14 36 -28 8 -28 -33 0 -33 -17 0 -24 30 -6 32 -26 3 -26 -17 0 -18 -12 -1
-29 10 -10 6 -18 -20 -40 l-32 -27 32 -25 32 -26 1 54 c0 29 6 59 12 65 7 7
12 20 12 29 0 18 50 106 88 153 12 16 22 38 22 49 0 12 12 38 26 59 15 21 25
40 23 42 -2 2 -24 -12 -49 -30z"/>
<path d="M2460 1746 c-17 -46 -16 -61 6 -64 28 -4 53 50 34 73 -18 21 -29 19
-40 -9z"/>
<path d="M2528 1668 c-3 -18 -8 -40 -12 -50 -6 -13 2 -18 41 -26 26 -6 49 -10
50 -8 1 1 -11 22 -27 46 -17 25 -30 51 -30 58 0 26 -18 10 -22 -20z"/>
<path d="M2440 1630 c0 -35 23 -41 40 -10 13 25 5 40 -21 40 -14 0 -19 -7 -19
-30z"/>
<path d="M3953 1545 c0 -27 2 -38 4 -22 2 15 2 37 0 50 -2 12 -4 0 -4 -28z"/>
<path d="M2325 1563 c-11 -3 -31 -9 -44 -14 -35 -14 -12 -34 56 -48 48 -9 57
-9 67 5 15 19 62 15 58 -5 -2 -11 7 -12 40 -7 59 9 108 26 108 36 0 14 -30 27
-77 35 -36 6 -43 4 -43 -9 0 -9 -4 -16 -10 -16 -5 0 -7 7 -4 15 5 12 -5 15
-62 14 -38 -1 -78 -4 -89 -6z"/>
<path d="M2240 1475 c0 -9 6 -12 15 -9 8 4 12 10 9 15 -8 14 -24 10 -24 -6z"/>
<path d="M3952 1465 c0 -16 2 -22 5 -12 2 9 2 23 0 30 -3 6 -5 -1 -5 -18z"/>
<path d="M2014 1424 c0 -59 -22 -99 -65 -121 l-23 -12 24 -9 c17 -7 26 -6 29
2 2 6 15 25 28 42 17 23 23 44 23 80 0 27 -4 54 -8 61 -4 6 -7 -13 -8 -43z"/>
<path d="M1710 1448 c0 -20 1 -21 20 -3 11 10 20 20 20 22 0 1 -9 3 -20 3 -14
0 -20 -7 -20 -22z"/>
<path d="M4663 1385 c0 -22 2 -30 4 -17 2 12 2 30 0 40 -3 9 -5 -1 -4 -23z"/>
<path d="M5570 1388 c0 -27 -20 -62 -105 -176 -58 -78 -99 -142 -91 -142 7 0
19 13 26 29 6 16 19 37 29 47 9 11 39 48 66 84 96 125 112 143 125 135 6 -4
10 3 10 13 0 11 -8 22 -17 26 -10 3 -24 9 -30 12 -9 4 -13 -5 -13 -28z"/>
<path d="M2407 1373 c-16 -18 -24 -33 -19 -33 6 0 12 6 15 13 2 6 8 9 12 5 4
-4 -8 -20 -27 -36 -18 -17 -29 -34 -24 -39 5 -4 11 -2 13 5 4 10 11 8 29 -9
13 -12 24 -18 25 -13 0 5 4 0 9 -11 8 -17 9 -15 8 10 -1 49 2 66 10 61 5 -3 8
-28 6 -56 -1 -28 2 -50 8 -50 5 0 7 -9 3 -19 -3 -11 -1 -22 5 -26 15 -9 38 12
56 49 l15 31 -27 -30 -26 -30 6 32 c4 24 1 35 -11 42 -15 8 -15 11 -4 25 12
14 11 20 -8 40 -11 12 -18 25 -15 29 3 3 -2 14 -12 25 -19 19 -20 18 -47 -15z
m23 -86 c0 -18 -2 -19 -10 -7 -13 20 -13 43 0 35 6 -3 10 -16 10 -28z"/>
<path d="M3940 1394 c0 -8 5 -12 10 -9 6 4 8 11 5 16 -9 14 -15 11 -15 -7z"/>
<path d="M4470 1381 c0 -12 5 -21 10 -21 6 0 10 6 10 14 0 8 -4 18 -10 21 -5
3 -10 -3 -10 -14z"/>
<path d="M5988 1377 c-3 -19 -2 -25 4 -19 6 6 8 18 6 28 -3 14 -5 12 -10 -9z"/>
<path d="M2716 1340 c8 -43 14 -51 14 -19 0 13 -5 31 -10 39 -7 11 -8 5 -4
-20z"/>
<path d="M3455 1345 c-26 -25 -33 -77 -15 -105 7 -11 10 -5 10 23 0 48 13 73
48 91 26 15 26 15 4 16 -13 0 -34 -11 -47 -25z"/>
<path d="M3704 1363 c-20 -4 -21 -9 -17 -66 4 -53 2 -67 -19 -97 -31 -46 -83
-70 -158 -74 -57 -3 -79 -14 -80 -38 0 -18 41 -17 59 1 12 12 30 21 40 21 11
0 46 11 78 25 72 32 93 64 93 145 0 48 4 60 23 73 22 16 19 18 -19 10z"/>
<path d="M2480 1356 c0 -2 14 -18 30 -34 34 -34 43 -66 10 -37 -23 21 -27 11
-4 -12 22 -22 38 -3 24 28 -10 21 -60 67 -60 55z"/>
<path d="M4889 1340 c-25 -14 -45 -68 -30 -83 8 -8 11 -4 11 18 0 16 10 39 22
52 23 25 22 28 -3 13z"/>
<path d="M6221 1333 c-25 -21 -33 -73 -12 -81 10 -3 12 0 8 12 -9 22 11 62 37
74 16 8 17 11 5 11 -9 1 -26 -7 -38 -16z"/>
<path d="M6465 1333 c14 -32 28 -129 22 -146 -4 -11 -19 -17 -39 -18 l-33 -1
30 -7 c48 -12 55 -4 55 59 0 52 -22 130 -36 130 -3 0 -3 -8 1 -17z"/>
<path d="M2957 1329 c-27 -16 -47 -71 -46 -126 l2 -48 9 60 c11 72 33 104 79
115 l34 8 -30 1 c-16 0 -38 -4 -48 -10z"/>
<path d="M3208 1325 c5 -11 12 -27 15 -35 5 -13 6 -13 6 1 1 8 -6 24 -15 35
-15 19 -15 19 -6 -1z"/>
<path d="M3975 1315 c-18 -17 -25 -34 -23 -57 l1 -33 4 31 c5 41 39 71 83 77
l35 4 -38 1 c-28 2 -44 -4 -62 -23z"/>
<path d="M5267 1333 c18 -2 50 -2 70 0 21 2 7 4 -32 4 -38 0 -55 -2 -38 -4z"/>
<path d="M5683 1333 c15 -2 39 -2 55 0 15 2 2 4 -28 4 -30 0 -43 -2 -27 -4z"/>
<path d="M5808 1333 c7 -3 16 -2 19 1 4 3 -2 6 -13 5 -11 0 -14 -3 -6 -6z"/>
<path d="M5884 1218 c-110 -149 -109 -148 -89 -148 8 0 15 7 15 16 0 9 14 33
30 53 17 20 34 41 38 46 4 6 22 29 40 51 17 23 32 45 32 50 0 4 7 16 17 26 9
10 14 20 11 23 -2 3 -45 -50 -94 -117z"/>
<path d="M2338 1304 c-10 -22 -9 -28 15 -48 15 -13 27 -28 27 -35 0 -18 -14
-13 -28 10 -23 36 -24 13 -1 -25 11 -20 27 -36 35 -36 16 0 39 73 24 78 -6 2
-10 10 -10 18 0 17 -17 19 -22 2 -8 -24 -30 5 -26 33 6 36 1 37 -14 3z"/>
<path d="M4544 1310 c-47 -19 -54 -45 -52 -190 l2 -135 5 142 c3 78 9 144 12
147 3 4 23 15 45 26 39 19 29 27 -12 10z"/>
<path d="M5141 1294 c0 -11 3 -14 6 -6 3 7 2 16 -1 19 -3 4 -6 -2 -5 -13z"/>
<path d="M2717 1258 c-4 -21 -19 -51 -33 -68 -27 -32 -26 -45 6 -53 17 -4 20
0 20 25 0 16 5 38 11 49 5 11 9 34 7 52 l-3 32 -8 -37z"/>
<path d="M4252 1194 c-3 -108 -36 -178 -102 -213 -45 -23 -45 -23 -10 -17 45
8 98 60 111 108 5 21 8 75 6 121 l-3 82 -2 -81z"/>
<path d="M3230 1200 c-1 -126 -51 -198 -160 -231 -56 -17 -59 -19 -21 -14 58
7 125 39 150 71 36 46 63 176 43 210 -9 15 -11 9 -12 -36z"/>
<path d="M1710 1198 l1 -33 13 25 c12 21 23 26 78 31 l63 6 -77 1 -78 2 0 -32z"/>
<path d="M2418 1188 c-5 -48 0 -67 14 -47 5 9 6 4 2 -13 -8 -36 2 -36 21 2 17
33 19 44 6 36 -4 -3 -6 6 -3 20 4 23 -9 43 -29 44 -4 0 -9 -19 -11 -42z"/>
<path d="M2030 1140 c0 -71 -43 -127 -115 -154 -22 -8 -32 -15 -23 -15 26 -1
101 34 123 58 13 16 20 41 23 87 2 35 2 64 -2 64 -3 0 -6 -18 -6 -40z"/>
<path d="M4850 1153 c0 -10 5 -25 10 -33 8 -12 10 -11 10 8 0 14 8 26 23 32
20 8 19 9 -10 9 -25 1 -33 -3 -33 -16z"/>
<path d="M5113 1163 c9 -2 23 -2 30 0 6 3 -1 5 -18 5 -16 0 -22 -2 -12 -5z"/>
<path d="M6190 1143 c1 -25 2 -26 11 -10 6 10 20 22 32 27 19 8 18 9 -10 9
-30 1 -33 -2 -33 -26z"/>
<path d="M6298 1163 c6 -2 18 -2 25 0 6 3 1 5 -13 5 -14 0 -19 -2 -12 -5z"/>
<path d="M3951 1144 c0 -11 3 -14 6 -6 3 7 2 16 -1 19 -3 4 -6 -2 -5 -13z"/>
<path d="M2282 1086 c79 -75 247 -77 315 -3 26 29 27 30 3 14 -58 -40 -92 -49
-176 -45 -74 3 -87 6 -131 36 l-48 33 37 -35z"/>
<path d="M2771 1070 c-2 -8 -2 -25 -1 -37 2 -33 -44 -70 -114 -93 -75 -23 -58
-26 29 -4 82 21 97 37 92 100 -2 27 -5 42 -6 34z"/>
<path d="M6460 1031 c0 -35 -3 -40 -31 -50 -17 -6 -61 -14 -97 -17 -51 -6 -61
-9 -43 -16 27 -10 148 18 174 40 18 16 24 82 7 82 -5 0 -10 -18 -10 -39z"/>
<path d="M5120 1026 c0 -36 -4 -39 -85 -60 -11 -3 2 -4 28 -2 32 3 53 10 62
22 17 22 19 60 5 69 -6 4 -10 -8 -10 -29z"/>
<path d="M2146 1029 c38 -38 143 -59 294 -59 137 0 205 11 268 44 52 27 37 35
-18 8 -111 -55 -384 -54 -508 3 -53 24 -56 24 -36 4z"/>
<path d="M5580 1005 c0 -34 1 -34 19 -18 15 12 17 21 10 35 -15 29 -29 21 -29
-17z"/>
<path d="M5990 1004 c0 -21 4 -33 10 -29 6 3 10 19 10 36 0 16 -4 29 -10 29
-5 0 -10 -16 -10 -36z"/>
<path d="M3350 1010 c0 -5 5 -10 11 -10 5 0 7 5 4 10 -3 6 -8 10 -11 10 -2 0
-4 -4 -4 -10z"/>
<path d="M3934 1004 c-4 -11 -10 -23 -12 -29 -3 -5 1 -5 9 1 8 6 20 13 28 16
10 3 10 6 -3 17 -13 11 -17 10 -22 -5z"/>
<path d="M1633 963 c15 -2 37 -2 50 0 12 2 0 4 -28 4 -27 0 -38 -2 -22 -4z"/>
<path d="M1753 963 c20 -2 54 -2 75 0 20 2 3 4 -38 4 -41 0 -58 -2 -37 -4z"/>
<path d="M3868 963 c6 -2 18 -2 25 0 6 3 1 5 -13 5 -14 0 -19 -2 -12 -5z"/>
<path d="M5263 963 c9 -2 23 -2 30 0 6 3 -1 5 -18 5 -16 0 -22 -2 -12 -5z"/>
<path d="M5398 963 c12 -2 32 -2 45 0 12 2 2 4 -23 4 -25 0 -35 -2 -22 -4z"/>
<path d="M5678 963 c6 -2 18 -2 25 0 6 3 1 5 -13 5 -14 0 -19 -2 -12 -5z"/>
<path d="M3406 941 c-10 -11 -16 -29 -13 -43 4 -21 4 -21 6 -2 2 33 27 47 99
54 l67 7 -71 2 c-58 1 -74 -2 -88 -18z"/>
<path d="M3741 937 c-3 -71 -55 -131 -133 -156 -20 -7 -73 -12 -118 -13 -58
-1 -78 -4 -70 -12 6 -6 44 -11 88 -10 79 1 143 24 199 72 25 22 47 88 40 122
-4 24 -4 24 -6 -3z"/>
<path d="M4953 953 c9 -2 25 -2 35 0 9 3 1 5 -18 5 -19 0 -27 -2 -17 -5z"/>
<path d="M2403 913 c37 -2 96 -2 130 0 34 2 4 3 -68 3 -71 0 -99 -1 -62 -3z"/>
</g>
</svg>
