<?xml version="1.0" encoding="UTF-8"?>
<svg version="1.1" xmlns="http://www.w3.org/2000/svg" width="554" height="264">
<path d="M0 0 C1.31225809 3.93677426 0.3393954 5.7794262 -0.9375 9.6875 C-1.50791016 11.45673828 -1.50791016 11.45673828 -2.08984375 13.26171875 C-2.39019531 14.16535156 -2.69054687 15.06898437 -3 16 C-3.66 16 -4.32 16 -5 16 C-5.35578125 17.50240234 -5.35578125 17.50240234 -5.71875 19.03515625 C-6.94509383 23.31980294 -9.05405757 26.74514282 -11.5 30.4375 C-11.90347656 31.07365234 -12.30695313 31.70980469 -12.72265625 32.36523438 C-13.75487275 33.95103233 -14.87112362 35.48149278 -16 37 C-16.66 37 -17.32 37 -18 37 C-18.2475 37.556875 -18.495 38.11375 -18.75 38.6875 C-21.30027291 43.40550489 -24.14532589 46.63490236 -29 49 C-29.99 49 -30.98 49 -32 49 C-32 49.66 -32 50.32 -32 51 C-31.071875 50.7215625 -31.071875 50.7215625 -30.125 50.4375 C-28 50 -28 50 -26 51 C-27.03293147 53.82572058 -27.67952982 54.82978305 -30.3828125 56.265625 C-31.74019531 56.75289062 -31.74019531 56.75289062 -33.125 57.25 C-34.03507812 57.58515625 -34.94515625 57.9203125 -35.8828125 58.265625 C-36.58148438 58.50796875 -37.28015625 58.7503125 -38 59 C-37.31316563 63.3007868 -37.31316563 63.3007868 -36.1875 67.5 C-35.90147636 71.3136485 -37.69026159 73.06600797 -40 76 C-41.8125 78.0625 -41.8125 78.0625 -44 80 C-44.46921875 80.42410156 -44.9384375 80.84820312 -45.421875 81.28515625 C-50.54369014 85.46797195 -55.51688377 86.11957681 -62 87 C-58.7 88.32 -55.4 89.64 -52 91 C-52.77285639 94.86428195 -53.71019877 98.30256981 -55 102 C-55.66 102 -56.32 102 -57 102 C-57.2784375 103.2684375 -57.2784375 103.2684375 -57.5625 104.5625 C-59.46701716 109.11678018 -62.02192569 112.08377144 -66 115 C-68.72475334 116.07943981 -71.07908376 116.5388027 -74 117 C-70.7 118.32 -67.4 119.64 -64 121 C-65.38118636 125.14355908 -67.65248649 126.30849122 -71.234375 128.63671875 C-76.0003052 130.98602615 -80.74955082 131.39650009 -86 132 C-81.38 132.99 -76.76 133.98 -72 135 C-72.33 135.99 -72.66 136.98 -73 138 C-78.36095333 139.12862175 -83.55306686 139.09688221 -89 139 C-86.77005941 141.56759721 -85.12568467 142.48141146 -81.8125 143.1875 C-80.554375 143.455625 -79.29625 143.72375 -78 144 C-78 144.66 -78 145.32 -78 146 C-79.62626404 147.38232443 -81.2925002 148.71937515 -83 150 C-82.34 150.33 -81.68 150.66 -81 151 C-81 151.66 -81 152.32 -81 153 C-81.99 153.66 -82.98 154.32 -84 155 C-83.67 155.99 -83.34 156.98 -83 158 C-84.65 159.65 -86.3 161.3 -88 163 C-87.52949219 163.36351562 -87.05898437 163.72703125 -86.57421875 164.1015625 C-81.77854907 167.97384237 -78.4152365 171.14005506 -77.72265625 177.578125 C-77.52109176 183.47993319 -78.0855037 187.84358346 -81 193 C-81.66 193.33 -82.32 193.66 -83 194 C-82.04287109 194.47566406 -82.04287109 194.47566406 -81.06640625 194.9609375 C-74.51883097 198.65863212 -74.51883097 198.65863212 -73.0390625 202.484375 C-72.18116076 208.92817033 -72.18116076 208.92817033 -74.65625 212.16796875 C-77.31887534 214.24925423 -79.59397663 215.17525581 -82.8125 216.1875 C-83.80894531 216.51105469 -84.80539063 216.83460938 -85.83203125 217.16796875 C-101.58721043 221.30588881 -120.59254649 220.64032007 -135.6875 214.5 C-138 213 -138 213 -140 210 C-140.00591257 206.45836963 -139.34491906 203.27388663 -138 200 C-135.73981362 197.94764685 -133.8795413 197.17314646 -131 196 C-131.45595297 193.87221945 -131.91420027 192.14717954 -133.015625 190.2578125 C-135.08199634 185.51827824 -134.51655375 180.05214765 -134 175 C-132.25 171.5 -132.25 171.5 -130 169 C-129.278125 168.0925 -128.55625 167.185 -127.8125 166.25 C-127.214375 165.5075 -126.61625 164.765 -126 164 C-125.505 163.01 -125.505 163.01 -125 162 C-126.65 161.34 -128.3 160.68 -130 160 C-129.875 158.25 -129.875 158.25 -129 156 C-122.8595608 151.14476901 -117.36465554 149.72896876 -109.625 149.875 C-108.37976563 149.89304688 -107.13453125 149.91109375 -105.8515625 149.9296875 C-104.91054687 149.95289063 -103.96953125 149.97609375 -103 150 C-103 148.35 -103 146.7 -103 145 C-104.65 144.67 -106.3 144.34 -108 144 C-108 142.02 -108 140.04 -108 138 C-106.68 138 -105.36 138 -104 138 C-104 139.32 -104 140.64 -104 142 C-103.01 142 -102.02 142 -101 142 C-101.165 140.9275 -101.33 139.855 -101.5 138.75 C-102.29784692 132.76614813 -101.55755965 129.42202645 -99 124 C-98.67 123.67 -98.34 123.34 -98 123 C-97.83913308 121.1017704 -97.68132282 119.20280189 -97.57421875 117.30078125 C-97 115 -97 115 -95.046875 112.203125 C-92.08155023 107.56273128 -91.77826479 102.93578279 -91.00390625 97.55859375 C-89.83299163 93.40799756 -88.17750244 91.82332223 -85 89 C-84.13880866 86.82653432 -84.13880866 86.82653432 -84 85 C-83.34 85 -82.68 85 -82 85 C-82 82.36 -82 79.72 -82 77 C-80.02 77 -78.04 77 -76 77 C-75.95875 76.2575 -75.9175 75.515 -75.875 74.75 C-75 72 -75 72 -72.2421875 70.36328125 C-68.02467923 67.70203981 -66.37099281 63.81620467 -64.25 59.4375 C-63.48546274 57.91481794 -62.71987823 56.39266115 -61.953125 54.87109375 C-61.62473633 54.20005615 -61.29634766 53.52901855 -60.95800781 52.83764648 C-60 51 -60 51 -58 48 C-57.34 48 -56.68 48 -56 48 C-55.74992187 47.28199219 -55.49984375 46.56398437 -55.2421875 45.82421875 C-53.88152525 42.73063759 -52.23664746 40.44608296 -50.125 37.8125 C-49.44695312 36.95269531 -48.76890625 36.09289063 -48.0703125 35.20703125 C-46 33 -46 33 -43.8671875 31.94921875 C-41.84404544 31.15634449 -41.84404544 31.15634449 -41.08520508 29.12963867 C-39.90526243 26.81408419 -38.74188074 25.64656082 -36.76953125 23.9765625 C-36.13080078 23.43 -35.49207031 22.8834375 -34.83398438 22.3203125 C-34.16689453 21.76085937 -33.49980469 21.20140625 -32.8125 20.625 C-31.84086914 19.79742188 -31.84086914 19.79742188 -30.84960938 18.953125 C-29.54563237 17.84324647 -28.23914558 16.73630993 -26.93017578 15.63232422 C-25.06206235 14.05248531 -23.20770764 12.4577717 -21.35546875 10.859375 C-7.18635198 -1.27757369 -7.18635198 -1.27757369 0 0 Z M-52 55 C-52 58 -52 58 -52 58 Z M-58.5859375 62.5390625 C-64.83715839 69.62873936 -64.83715839 69.62873936 -69 78 C-69.66 78 -70.32 78 -71 78 C-71.33 79.32 -71.66 80.64 -72 82 C-68.33579211 80.53591694 -66.79413672 78.69120508 -64.625 75.4375 C-64.02816406 74.55191406 -63.43132812 73.66632813 -62.81640625 72.75390625 C-62.21699219 71.84511719 -61.61757812 70.93632813 -61 70 C-60.41089844 69.12214844 -59.82179688 68.24429688 -59.21484375 67.33984375 C-57.80170804 65.2318328 -56.39709037 63.11866452 -55 61 C-57.12911533 60.76785939 -57.12911533 60.76785939 -58.5859375 62.5390625 Z M-78 91 C-77 93 -77 93 -77 93 Z M-79 93 C-79 96 -79 96 -79 96 Z M-81 96 C-80 98 -80 98 -80 98 Z M-98 142 C-98 144.64 -98 147.28 -98 150 C-95.03 150.495 -95.03 150.495 -92 151 C-93.47323739 145.85436535 -93.47323739 145.85436535 -97 142 C-97.33 142 -97.66 142 -98 142 Z M-124 157 C-123.20621018 159.17349682 -123.20621018 159.17349682 -121.13671875 159.6328125 C-111.11280953 161.6471866 -101.8891236 161.63709963 -92 159 C-92 158.01 -92 157.02 -92 156 C-94.64 155.67 -97.28 155.34 -100 155 C-100.33 155.66 -100.66 156.32 -101 157 C-101.99 157 -102.98 157 -104 157 C-104.66 156.01 -105.32 155.02 -106 154 C-112.47301214 152.77277465 -118.12236422 154.38771743 -124 157 Z M-120 212 C-120 212.33 -120 212.66 -120 213 C-117.69 213 -115.38 213 -113 213 C-113 212.67 -113 212.34 -113 212 C-115.31 212 -117.62 212 -120 212 Z M-105 212 C-105 212.33 -105 212.66 -105 213 C-101.37 213 -97.74 213 -94 213 C-94 212.67 -94 212.34 -94 212 C-97.63 212 -101.26 212 -105 212 Z " fill="#030B23" transform="translate(228,4)"/>
<path d="M0 0 C1.31225809 3.93677426 0.3393954 5.7794262 -0.9375 9.6875 C-1.31777344 10.86699219 -1.69804687 12.04648437 -2.08984375 13.26171875 C-2.39019531 14.16535156 -2.69054687 15.06898437 -3 16 C-3.66 16 -4.32 16 -5 16 C-5.2371875 17.00160156 -5.474375 18.00320312 -5.71875 19.03515625 C-6.94509383 23.31980294 -9.05405757 26.74514282 -11.5 30.4375 C-11.90347656 31.07365234 -12.30695313 31.70980469 -12.72265625 32.36523438 C-13.75487275 33.95103233 -14.87112362 35.48149278 -16 37 C-16.66 37 -17.32 37 -18 37 C-18.2475 37.556875 -18.495 38.11375 -18.75 38.6875 C-21.30027291 43.40550489 -24.14532589 46.63490236 -29 49 C-29.99 49 -30.98 49 -32 49 C-32 49.66 -32 50.32 -32 51 C-31.071875 50.7215625 -31.071875 50.7215625 -30.125 50.4375 C-28 50 -28 50 -26 51 C-27.03293147 53.82572058 -27.67952982 54.82978305 -30.3828125 56.265625 C-31.74019531 56.75289062 -31.74019531 56.75289062 -33.125 57.25 C-34.03507812 57.58515625 -34.94515625 57.9203125 -35.8828125 58.265625 C-36.58148438 58.50796875 -37.28015625 58.7503125 -38 59 C-37.31316563 63.3007868 -37.31316563 63.3007868 -36.1875 67.5 C-35.90147636 71.3136485 -37.69026159 73.06600797 -40 76 C-41.8125 78.0625 -41.8125 78.0625 -44 80 C-44.46921875 80.42410156 -44.9384375 80.84820312 -45.421875 81.28515625 C-50.54369014 85.46797195 -55.51688377 86.11957681 -62 87 C-58.7 88.32 -55.4 89.64 -52 91 C-52.77285639 94.86428195 -53.71019877 98.30256981 -55 102 C-55.66 102 -56.32 102 -57 102 C-57.2784375 103.2684375 -57.2784375 103.2684375 -57.5625 104.5625 C-59.46701716 109.11678018 -62.02192569 112.08377144 -66 115 C-68.72475334 116.07943981 -71.07908376 116.5388027 -74 117 C-71.69 117.99 -69.38 118.98 -67 120 C-67 120.99 -67 121.98 -67 123 C-68.42578125 124.3515625 -68.42578125 124.3515625 -70.3125 125.625 C-70.92738281 126.05039063 -71.54226562 126.47578125 -72.17578125 126.9140625 C-75.83855598 129.0944723 -79.26627214 129.23485952 -83.4375 129.5 C-87.07876068 129.7319802 -90.49255227 129.96586308 -94 131 C-94 131.66 -94 132.32 -94 133 C-94.66 133 -95.32 133 -96 133 C-95.40034174 127.61164219 -93.58447721 123.19877455 -91.375 118.3125 C-90.83975708 117.11874756 -90.83975708 117.11874756 -90.29370117 115.90087891 C-87.38214819 109.54898592 -83.92888757 103.77414039 -80 98 C-77.35301401 93.85721667 -74.78950925 89.6639828 -72.24609375 85.45703125 C-71.78396484 84.69326172 -71.32183594 83.92949219 -70.84570312 83.14257812 C-69.90066737 81.57887819 -68.9579875 80.01375222 -68.01757812 78.44726562 C-65.5641396 74.4016656 -63.05030257 70.63324929 -60 67 C-59.484375 66.236875 -58.96875 65.47375 -58.4375 64.6875 C-57.7259375 63.8521875 -57.7259375 63.8521875 -57 63 C-56.01 63 -55.02 63 -54 63 C-53.73445313 62.44441406 -53.46890625 61.88882813 -53.1953125 61.31640625 C-46.33803894 48.02763756 -36.64940865 36.33014581 -27 25 C-35.38252721 33.29074772 -43.30842474 41.96842564 -50.69921875 51.15625 C-53.38304942 54.47344648 -56.12075697 57.7412287 -58.875 61 C-59.3397876 61.55236328 -59.8045752 62.10472656 -60.28344727 62.67382812 C-62.43377757 65.21502023 -64.58956555 67.70130754 -67 70 C-66.48263562 65.86108497 -64.94883789 62.70676875 -63.05078125 59.0625 C-61.54303301 56.10305364 -60.28589631 53.06165788 -59 50 C-58.505 49.01 -58.505 49.01 -58 48 C-57.34 48 -56.68 48 -56 48 C-55.74992187 47.28199219 -55.49984375 46.56398437 -55.2421875 45.82421875 C-53.88152525 42.73063759 -52.23664746 40.44608296 -50.125 37.8125 C-49.44695312 36.95269531 -48.76890625 36.09289063 -48.0703125 35.20703125 C-46 33 -46 33 -43.8671875 31.94921875 C-41.84404544 31.15634449 -41.84404544 31.15634449 -41.08520508 29.12963867 C-39.90526243 26.81408419 -38.74188074 25.64656082 -36.76953125 23.9765625 C-36.13080078 23.43 -35.49207031 22.8834375 -34.83398438 22.3203125 C-34.16689453 21.76085937 -33.49980469 21.20140625 -32.8125 20.625 C-31.84086914 19.79742188 -31.84086914 19.79742188 -30.84960938 18.953125 C-29.54563237 17.84324647 -28.23914558 16.73630993 -26.93017578 15.63232422 C-25.06206235 14.05248531 -23.20770764 12.4577717 -21.35546875 10.859375 C-7.18635198 -1.27757369 -7.18635198 -1.27757369 0 0 Z " fill="#081025" transform="translate(228,4)"/>
<path d="M0 0 C4.9064772 2.10995265 8.21565504 4.97672574 10.2890625 9.984375 C11.03191557 14.73517951 10.76446145 18.12865689 8.4140625 22.359375 C7.3621875 23.65875 7.3621875 23.65875 6.2890625 24.984375 C5.6290625 25.974375 4.9690625 26.964375 4.2890625 27.984375 C5.2378125 28.62375 6.1865625 29.263125 7.1640625 29.921875 C10.50308049 32.73076454 11.46005879 35.3151867 12.1875 39.55859375 C12.35487731 43.5563364 11.45721815 47.18337622 10.2890625 50.984375 C9.6290625 50.984375 8.9690625 50.984375 8.2890625 50.984375 C8.0828125 51.561875 7.8765625 52.139375 7.6640625 52.734375 C5.74643363 55.87231316 3.46224728 57.18001503 0.2890625 58.984375 C-10.82899089 61.20798568 -22.37270327 59.984375 -33.7109375 59.984375 C-33.7109375 39.854375 -33.7109375 19.724375 -33.7109375 -1.015625 C-25.39056264 -5.17581243 -8.53642511 -2.60766877 0 0 Z M-20.7109375 9.984375 C-20.79175844 11.94203781 -20.85004528 13.90064228 -20.8984375 15.859375 C-20.93324219 16.94992188 -20.96804687 18.04046875 -21.00390625 19.1640625 C-20.90722656 20.09476563 -20.81054688 21.02546875 -20.7109375 21.984375 C-17.32590712 24.24106192 -16.58537855 24.17255583 -12.7109375 23.734375 C-11.4115625 23.60289062 -11.4115625 23.60289062 -10.0859375 23.46875 C-7.45826616 23.08837862 -7.45826616 23.08837862 -4.7109375 20.984375 C-3.69639797 18.66413096 -3.69639797 18.66413096 -3.7109375 15.984375 C-4.84842945 13.19929184 -4.84842945 13.19929184 -6.7109375 10.984375 C-9.86024643 9.93460536 -12.09908206 9.88305905 -15.3984375 9.921875 C-16.39230469 9.93089844 -17.38617188 9.93992188 -18.41015625 9.94921875 C-19.16941406 9.96082031 -19.92867187 9.97242188 -20.7109375 9.984375 Z M-20.7109375 33.984375 C-20.7109375 38.604375 -20.7109375 43.224375 -20.7109375 47.984375 C-14.91582506 50.20377976 -10.55565855 50.2430919 -4.7109375 47.984375 C-2.44163754 46.40620265 -2.44163754 46.40620265 -1.7109375 43.984375 C-1.47042943 40.92547358 -1.47042943 40.92547358 -2.7109375 37.984375 C-5.75401149 34.85905577 -7.41917998 34.08639916 -11.77734375 33.7421875 C-14.7562941 33.73515338 -17.73491667 33.85210741 -20.7109375 33.984375 Z " fill="#192032" transform="translate(69.7109375,158.015625)"/>
<path d="M0 0 C0.69504639 0.03915527 1.39009277 0.07831055 2.10620117 0.11865234 C7.06733313 0.43991656 7.06733313 0.43991656 9.3125 1.5625 C9.3125 3.5425 9.3125 5.5225 9.3125 7.5625 C7.0025 7.8925 4.6925 8.2225 2.3125 8.5625 C2.56 9.305 2.56 9.305 2.8125 10.0625 C4.07090694 16.3545347 3.8828445 21.14542559 0.3125 26.5625 C-3.69863105 30.80957993 -8.07890696 31.80218017 -13.6875 32.5625 C-15.6871695 32.59885763 -17.68809462 32.61126598 -19.6875 32.5625 C-20.6775 33.0575 -20.6775 33.0575 -21.6875 33.5625 C-21.3575 34.5525 -21.0275 35.5425 -20.6875 36.5625 C-20.08276855 36.60213867 -19.47803711 36.64177734 -18.85498047 36.68261719 C-16.08920627 36.87430975 -13.32621327 37.09315768 -10.5625 37.3125 C-9.13550781 37.4053125 -9.13550781 37.4053125 -7.6796875 37.5 C-1.9189585 37.98006075 1.96600392 38.61113993 6.3125 42.5625 C6.3125 43.5525 6.3125 44.5425 6.3125 45.5625 C6.9725 45.5625 7.6325 45.5625 8.3125 45.5625 C8.3125 49.1925 8.3125 52.8225 8.3125 56.5625 C7.6525 56.5625 6.9925 56.5625 6.3125 56.5625 C6.065 57.6453125 6.065 57.6453125 5.8125 58.75 C3.56513085 62.96381715 0.66261464 64.71353319 -3.6875 66.5625 C-13.29829021 69.10616416 -24.18682571 69.99020024 -33.375 65.625 C-36.6875 63.5625 -36.6875 63.5625 -37.6875 61.5625 C-38.11058538 56.96551468 -38.22644467 52.85596722 -36.4375 48.5625 C-34.63385204 46.50118805 -33.23313057 45.52808401 -30.6875 44.5625 C-31.55375 43.015625 -31.55375 43.015625 -32.4375 41.4375 C-33.29296875 39.5 -33.29296875 39.5 -33.6875 37.5625 C-32.42089467 35.51958818 -31.08863616 33.51559888 -29.6875 31.5625 C-30.31958054 28.61279083 -31.29242565 27.02078625 -33.25 24.75 C-35.36566652 21.53050748 -35.7796818 18.33486299 -35.6875 14.5625 C-33.97786686 8.06589407 -30.09496173 4.42185776 -24.6875 0.5625 C-17.07962522 -1.97345826 -7.94849537 -0.4664462 0 0 Z M-20.375 9.625 C-22.94450134 12.41471321 -22.94450134 12.41471321 -23.3125 16.0625 C-22.52147068 20.4922642 -21.32275215 21.95460172 -17.6875 24.5625 C-14.5590965 25.23040364 -14.5590965 25.23040364 -11.6875 24.5625 C-9.01557871 20.55461807 -8.8623059 17.2743583 -9.6875 12.5625 C-11.81392846 9.43336757 -11.81392846 9.43336757 -14.6875 7.5625 C-17.85546326 7.25809061 -17.85546326 7.25809061 -20.375 9.625 Z M-26.6875 50.5625 C-26.42356499 53.99480448 -26.42356499 53.99480448 -25.6875 57.5625 C-21.00894443 60.68153705 -16.16652907 60.02510931 -10.6875 59.5625 C-7.04205416 58.62319247 -7.04205416 58.62319247 -4.6875 56.5625 C-3.71843173 53.97835574 -3.71843173 53.97835574 -3.6875 51.5625 C-8.32123753 47.6152421 -12.6721854 47.28249761 -18.68359375 47.328125 C-21.73653501 47.68519415 -24.08291662 48.99974997 -26.6875 50.5625 Z " fill="#21263A" transform="translate(243.6875,170.4375)"/>
<path d="M0 0 C1.51400391 0.01740234 1.51400391 0.01740234 3.05859375 0.03515625 C4.07050781 0.04417969 5.08242188 0.05320313 6.125 0.0625 C7.29869141 0.07990234 7.29869141 0.07990234 8.49609375 0.09765625 C10.14503689 7.45246611 9.78068816 14.71123842 8.49609375 22.09765625 C13.39172068 20.22063298 13.39172068 20.22063298 17.49609375 17.09765625 C23.07129056 16.23907594 27.77399475 16.91298483 32.49609375 20.09765625 C36.62025684 24.10398611 37.91739263 28.72806136 39.49609375 34.09765625 C39.82609375 35.08765625 40.15609375 36.07765625 40.49609375 37.09765625 C41.18900747 45.82836916 39.15613942 53.60309633 34.68359375 61.16015625 C29.88173195 65.41323385 24.8875653 66.60063829 18.640625 66.3984375 C15.53357339 65.96265795 13.16972672 64.68910445 10.49609375 63.09765625 C9.50609375 62.76765625 8.51609375 62.43765625 7.49609375 62.09765625 C7.16609375 63.08765625 6.83609375 64.07765625 6.49609375 65.09765625 C3.19609375 65.09765625 -0.10390625 65.09765625 -3.50390625 65.09765625 C-3.67488109 59.35856217 -3.83497819 53.61929032 -3.98608398 47.87963867 C-4.03861728 45.93750347 -4.09384543 43.99543882 -4.15209961 42.0534668 C-4.46894445 31.42676622 -4.58294841 20.85805299 -4.09375 10.234375 C-4.03242638 8.87696953 -4.03242638 8.87696953 -3.96986389 7.49214172 C-3.57605964 0.1394719 -3.57605964 0.1394719 0 0 Z M9.49609375 33.09765625 C9.04360294 36.00312356 8.8794159 38.22313826 8.99609375 41.09765625 C8.99351562 41.79632813 8.9909375 42.495 8.98828125 43.21484375 C9.07213735 47.65921701 9.80798051 50.55332917 12.49609375 54.09765625 C15.08155431 56.05904012 16.284044 56.11063889 19.55859375 55.91015625 C22.64844526 55.05551647 23.70413423 54.69599755 25.49609375 52.09765625 C27.62311401 47.28387355 27.67406873 43.25893078 27.49609375 38.09765625 C26.83609375 38.09765625 26.17609375 38.09765625 25.49609375 38.09765625 C25.43421875 37.19015625 25.37234375 36.28265625 25.30859375 35.34765625 C24.74784209 31.97400226 24.74784209 31.97400226 22.24609375 29.72265625 C16.37576361 26.2538248 13.59324966 27.98295011 9.49609375 33.09765625 Z " fill="#0F162B" transform="translate(263.50390625,152.90234375)"/>
<path d="M0 0 C0 3.60667024 -0.67413732 4.16181072 -2.95703125 6.8359375 C-3.88418945 7.93808594 -3.88418945 7.93808594 -4.83007812 9.0625 C-5.48427734 9.825625 -6.13847656 10.58875 -6.8125 11.375 C-12.36649853 17.85512379 -12.36649853 17.85512379 -17 25 C-18.34359014 27.0486424 -19.69823022 29.09007049 -21.0625 31.125 C-21.75472656 32.15882812 -22.44695312 33.19265625 -23.16015625 34.2578125 C-24.07087891 35.61519531 -24.07087891 35.61519531 -25 37 C-25.66 37.99 -26.32 38.98 -27 40 C-28.485 39.505 -28.485 39.505 -30 39 C-33.6832449 43.14978925 -37.01298499 47.30611927 -40 52 C-40.66 52.99 -41.32 53.98 -42 55 C-42.66 55 -43.32 55 -44 55 C-44 55.99 -44 56.98 -44 58 C-43.01 58.495 -43.01 58.495 -42 59 C-45.62632655 65.12357707 -49.3485099 71.17393629 -53.19140625 77.1640625 C-53.78824219 78.09992188 -54.38507813 79.03578125 -55 80 C-55.38881348 80.59103516 -55.77762695 81.18207031 -56.17822266 81.79101562 C-59.38447949 86.75252254 -61.90338259 91.83472905 -64.25 97.25 C-64.7759375 98.43335937 -64.7759375 98.43335937 -65.3125 99.640625 C-66.82190879 103.07743271 -68.16900448 106.32925683 -69 110 C-68.34 110 -67.68 110 -67 110 C-67 109.34 -67 108.68 -67 108 C-63.40039871 105.6002658 -61.52701431 105.74431585 -57.25 105.625 C-50.34548735 105.2259776 -46.2282776 104.2282776 -41.25 99.25 C-40.8375 98.8375 -40.425 98.425 -40 98 C-39.01 98 -38.02 98 -37 98 C-38.38118636 102.14355908 -40.65248649 103.30849122 -44.234375 105.63671875 C-49.0003052 107.98602615 -53.74955082 108.39650009 -59 109 C-54.38 109.99 -49.76 110.98 -45 112 C-45.495 113.485 -45.495 113.485 -46 115 C-51.36095333 116.12862175 -56.55306686 116.09688221 -62 116 C-59.77005941 118.56759721 -58.12568467 119.48141146 -54.8125 120.1875 C-53.554375 120.455625 -52.29625 120.72375 -51 121 C-51 121.66 -51 122.32 -51 123 C-52.62626404 124.38232443 -54.2925002 125.71937515 -56 127 C-55.01 127.495 -55.01 127.495 -54 128 C-54 128.66 -54 129.32 -54 130 C-54.99 130.66 -55.98 131.32 -57 132 C-56.67 132.99 -56.34 133.98 -56 135 C-57.65 136.65 -59.3 138.3 -61 140 C-60.67 140.66 -60.34 141.32 -60 142 C-60.6703125 141.8246875 -61.340625 141.649375 -62.03125 141.46875 C-65.64651994 140.8979179 -68.85412589 141.18421563 -72.5 141.5 C-79.76012277 142.06435848 -86.75225491 141.80668396 -94 141 C-93.505 140.01 -93.505 140.01 -93 139 C-92.34 139 -91.68 139 -91 139 C-91 138.34 -91 137.68 -91 137 C-92.65 137.33 -94.3 137.66 -96 138 C-95.87625 139.11955078 -95.87625 139.11955078 -95.75 140.26171875 C-96 143 -96 143 -97.75 145.01953125 C-98.4925 145.61121094 -99.235 146.20289063 -100 146.8125 C-100.7425 147.41707031 -101.485 148.02164063 -102.25 148.64453125 C-102.8275 149.09183594 -103.405 149.53914062 -104 150 C-104 145.71464033 -101.7483722 144.15057301 -99 141 C-98.505 140.01 -98.505 140.01 -98 139 C-99.65 138.34 -101.3 137.68 -103 137 C-102.875 135.25 -102.875 135.25 -102 133 C-95.8595608 128.14476901 -90.36465554 126.72896876 -82.625 126.875 C-81.37976563 126.89304687 -80.13453125 126.91109375 -78.8515625 126.9296875 C-77.91054687 126.95289063 -76.96953125 126.97609375 -76 127 C-76 125.35 -76 123.7 -76 122 C-77.65 121.67 -79.3 121.34 -81 121 C-81 119.02 -81 117.04 -81 115 C-79.68 115 -78.36 115 -77 115 C-77 116.32 -77 117.64 -77 119 C-76.01 119 -75.02 119 -74 119 C-74.165 117.9275 -74.33 116.855 -74.5 115.75 C-75.29784692 109.76614813 -74.55755965 106.42202645 -72 101 C-71.67 100.67 -71.34 100.34 -71 100 C-70.83913308 98.1017704 -70.68132282 96.20280189 -70.57421875 94.30078125 C-70 92 -70 92 -68.046875 89.203125 C-65.08155023 84.56273128 -64.77826479 79.93578279 -64.00390625 74.55859375 C-62.83299163 70.40799756 -61.17750244 68.82332223 -58 66 C-57.13880866 63.82653432 -57.13880866 63.82653432 -57 62 C-56.34 62 -55.68 62 -55 62 C-55 59.36 -55 56.72 -55 54 C-53.02 54 -51.04 54 -49 54 C-48.95875 53.2575 -48.9175 52.515 -48.875 51.75 C-48 49 -48 49 -45.1875 47.25 C-41.45609677 44.61606831 -40.15304287 42.30608574 -38.125 38.25 C-37.23167969 36.49429688 -37.23167969 36.49429688 -36.3203125 34.703125 C-35.66675781 33.36507812 -35.66675781 33.36507812 -35 32 C-34.67 32.66 -34.34 33.32 -34 34 C-34.99609375 36.3125 -34.99609375 36.3125 -36.4375 39 C-38.37773011 42.32910995 -38.37773011 42.32910995 -39 46 C-38.31035156 45.10539062 -37.62070313 44.21078125 -36.91015625 43.2890625 C-31.20072007 35.92646459 -25.3133012 28.85859593 -19 22 C-12.55454395 14.76560822 -6.29768078 7.36280577 0 0 Z M-25 32 C-25 35 -25 35 -25 35 Z M-51 68 C-50 70 -50 70 -50 70 Z M-52 70 C-52 73 -52 73 -52 73 Z M-54 73 C-53 75 -53 75 -53 75 Z M-71 119 C-71 121.64 -71 124.28 -71 127 C-68.03 127.495 -68.03 127.495 -65 128 C-66.47323739 122.85436535 -66.47323739 122.85436535 -70 119 C-70.33 119 -70.66 119 -71 119 Z M-97 134 C-96.20621018 136.17349682 -96.20621018 136.17349682 -94.13671875 136.6328125 C-84.11280953 138.6471866 -74.8891236 138.63709963 -65 136 C-65 135.01 -65 134.02 -65 133 C-67.64 132.67 -70.28 132.34 -73 132 C-73.33 132.66 -73.66 133.32 -74 134 C-74.99 134 -75.98 134 -77 134 C-77.66 133.01 -78.32 132.02 -79 131 C-85.47301214 129.77277465 -91.12236422 131.38771743 -97 134 Z " fill="#1B1F2D" transform="translate(201,27)"/>
<path d="M0 0 C5.0638084 4.79008903 7.16862769 9.0356927 7.48046875 15.8671875 C7.49236442 17.26558956 7.49871702 18.66404793 7.5 20.0625 C7.51224609 20.75730469 7.52449219 21.45210937 7.53710938 22.16796875 C7.54952874 26.56442393 6.93158407 30.10459235 5.3125 34.1875 C4.6525 34.1875 3.9925 34.1875 3.3125 34.1875 C3.085625 34.765 2.85875 35.3425 2.625 35.9375 C0.14082706 40.19608218 -2.80939121 41.89479707 -7.4375 43.4375 C-15.11169463 45.03569063 -22.61573293 44.86700743 -29.6875 41.1875 C-31.95499379 39.30056461 -33.07125927 37.74220308 -34.6875 35.1875 C-34.6875 33.8675 -34.6875 32.5475 -34.6875 31.1875 C-35.3475 31.1875 -36.0075 31.1875 -36.6875 31.1875 C-37.8679489 27.64615331 -37.83368724 24.43304786 -37.8125 20.75 C-37.81507813 19.43128906 -37.81765625 18.11257812 -37.8203125 16.75390625 C-37.7172031 13.98511546 -37.52832567 11.79672886 -36.6875 9.1875 C-36.0275 9.1875 -35.3675 9.1875 -34.6875 9.1875 C-34.57341797 8.08148438 -34.57341797 8.08148438 -34.45703125 6.953125 C-33.49178601 3.48412182 -32.08784299 2.26406256 -29.375 -0.0625 C-28.59511719 -0.74828125 -27.81523437 -1.4340625 -27.01171875 -2.140625 C-18.8671221 -7.99925923 -7.66204519 -5.16742582 0 0 Z M-23.6875 10.1875 C-24.79833501 13.52000502 -24.85509585 16.11788958 -24.875 19.625 C-24.88917969 20.75808594 -24.90335938 21.89117187 -24.91796875 23.05859375 C-24.69821135 26.04207979 -24.24593386 27.68045423 -22.6875 30.1875 C-22.0275 30.1875 -21.3675 30.1875 -20.6875 30.1875 C-20.3575 31.1775 -20.0275 32.1675 -19.6875 33.1875 C-15.05864979 34.09511769 -11.83724809 34.67734886 -7.6875 32.1875 C-4.19931851 27.01030432 -5.12248327 20.12706614 -5.6875 14.1875 C-6.87194491 10.78069454 -8.66858127 8.91060361 -11.625 6.8125 C-17.03081468 5.17437434 -19.65347544 6.26553168 -23.6875 10.1875 Z " fill="#181F33" transform="translate(193.6875,174.8125)"/>
<path d="M0 0 C5.57115188 2.61180655 9.16310044 6.57978524 11.50390625 12.28125 C11.81752733 14.66749738 12.0395716 17.06677561 12.19140625 19.46875 C12.27777344 20.72042969 12.36414063 21.97210938 12.453125 23.26171875 C12.46988281 24.25816406 12.48664063 25.25460938 12.50390625 26.28125 C11.50390625 27.28125 11.50390625 27.28125 8.72827148 27.39477539 C7.51856689 27.38953857 6.3088623 27.38430176 5.0625 27.37890625 C3.75732422 27.37568359 2.45214844 27.37246094 1.10742188 27.36914062 C-0.28125065 27.36078401 -1.66992252 27.35231905 -3.05859375 27.34375 C-4.45117031 27.33873666 -5.84374856 27.33417347 -7.23632812 27.33007812 C-10.65629245 27.31824434 -14.07617219 27.3017588 -17.49609375 27.28125 C-15.58724683 31.82295996 -15.58724683 31.82295996 -13.49609375 36.28125 C-6.82185083 38.50599764 0.11810961 37.41486491 6.7890625 35.62109375 C7.35496094 35.50894531 7.92085938 35.39679688 8.50390625 35.28125 C9.50390625 36.28125 9.50390625 36.28125 9.6015625 38.34765625 C9.58996094 39.17136719 9.57835937 39.99507812 9.56640625 40.84375 C9.55738281 41.67003906 9.54835938 42.49632812 9.5390625 43.34765625 C9.52746094 43.98574219 9.51585937 44.62382812 9.50390625 45.28125 C2.2234019 49.14117256 -7.90630404 49.6143413 -15.87109375 47.71484375 C-17.93359375 46.96875 -17.93359375 46.96875 -21.49609375 45.28125 C-22.40359375 44.889375 -23.31109375 44.4975 -24.24609375 44.09375 C-28.03945205 41.03798915 -30.05768731 36.77878173 -30.89794922 31.99194336 C-31.06711462 29.59476422 -31.10293062 27.24637484 -31.05859375 24.84375 C-31.04763672 24.00626221 -31.03667969 23.16877441 -31.02539062 22.3059082 C-30.80378997 15.99952301 -29.9712173 11.01270521 -25.49609375 6.28125 C-17.8645042 -0.53319038 -10.25112825 -2.95181158 0 0 Z M-14.80859375 11.03125 C-16.4481828 13.21736873 -17.11403938 14.60686938 -17.49609375 17.28125 C-12.6424988 21.29801824 -7.4463704 20.56261159 -1.49609375 20.28125 C-0.82567261 17.91513531 -0.82567261 17.91513531 -0.49609375 15.28125 C-2.27272897 12.58566552 -3.5889382 10.73482777 -6.49609375 9.28125 C-10.13529293 8.88568487 -11.84258162 8.78670028 -14.80859375 11.03125 Z " fill="#2A3042" transform="translate(380.49609375,170.71875)"/>
<path d="M0 0 C4.70118149 2.92324046 6.64750215 6.95664599 8.68359375 12.046875 C8.68359375 16.666875 8.68359375 21.286875 8.68359375 26.046875 C-0.88640625 26.376875 -10.45640625 26.706875 -20.31640625 27.046875 C-18.13317649 33.8311517 -18.13317649 33.8311517 -14.56640625 35.984375 C-8.52834375 37.95835697 -4.17306005 37.08397197 1.68359375 35.046875 C4.55859375 34.921875 4.55859375 34.921875 6.68359375 35.046875 C7.11358422 40.29275879 7.11358422 40.29275879 6.68359375 43.046875 C1.36350132 47.89754751 -6.46773587 47.33321416 -13.27734375 47.265625 C-19.69003204 46.80404332 -25.93705917 44.92671889 -30.31640625 40.046875 C-35.48409498 30.93542382 -35.25661243 21.88395565 -32.94921875 11.921875 C-32.31640625 10.046875 -32.31640625 10.046875 -30.31640625 7.046875 C-29.65640625 7.046875 -28.99640625 7.046875 -28.31640625 7.046875 C-28.08953125 6.469375 -27.86265625 5.891875 -27.62890625 5.296875 C-22.16615616 -4.06783944 -9.00259566 -3.96788 0 0 Z M-20.31640625 13.046875 C-20.31640625 14.366875 -20.31640625 15.686875 -20.31640625 17.046875 C-15.0030006 19.28409843 -9.99595393 19.48612059 -4.31640625 19.046875 C-3.65640625 18.716875 -2.99640625 18.386875 -2.31640625 18.046875 C-2.31640625 17.386875 -2.31640625 16.726875 -2.31640625 16.046875 C-2.97640625 16.046875 -3.63640625 16.046875 -4.31640625 16.046875 C-4.44015625 14.9021875 -4.44015625 14.9021875 -4.56640625 13.734375 C-5.11046974 10.98967728 -5.11046974 10.98967728 -7.00390625 9.234375 C-12.91882073 6.19698648 -16.43336835 8.02176713 -20.31640625 13.046875 Z " fill="#34394B" transform="translate(517.31640625,171.953125)"/>
<path d="M0 0 C2.19477763 -0.00218531 4.38905165 -0.02034232 6.58374023 -0.03930664 C7.97761872 -0.04224091 9.3714996 -0.04422548 10.76538086 -0.04516602 C12.03567139 -0.0492749 13.30596191 -0.05338379 14.61474609 -0.05761719 C17.76928711 0.18530273 17.76928711 0.18530273 20.76928711 2.18530273 C21.45016872 5.15642248 21.59194551 6.33236557 20.76928711 9.18530273 C19.01909025 11.82385709 17.06575718 14.16154722 14.99975586 16.56030273 C12.82863968 19.11545172 10.91508393 21.73429848 9.01928711 24.49780273 C7.21139984 27.1312093 5.40506422 29.63578894 3.39428711 32.12280273 C1.58150166 34.18412663 1.58150166 34.18412663 0.76928711 37.18530273 C7.36928711 37.18530273 13.96928711 37.18530273 20.76928711 37.18530273 C20.76928711 40.48530273 20.76928711 43.78530273 20.76928711 47.18530273 C8.22928711 47.18530273 -4.31071289 47.18530273 -17.23071289 47.18530273 C-14.97179611 35.89071885 -14.97179611 35.89071885 -12.23071289 32.56030273 C-11.71508789 31.90803711 -11.19946289 31.25577148 -10.66821289 30.58374023 C-9.23071289 29.18530273 -9.23071289 29.18530273 -7.23071289 29.18530273 C-6.97418945 28.46600586 -6.71766602 27.74670898 -6.45336914 27.00561523 C-5.15955894 24.02117125 -3.58755683 21.68086836 -1.66821289 19.06030273 C0.31280573 16.3503022 1.70390334 14.38145404 2.76928711 11.18530273 C0.96331055 11.20270508 0.96331055 11.20270508 -0.87915039 11.22045898 C-2.45466968 11.22983708 -4.03019064 11.23893726 -5.60571289 11.24780273 C-6.79680664 11.26037109 -6.79680664 11.26037109 -8.01196289 11.27319336 C-14.00415039 11.29858398 -14.00415039 11.29858398 -16.23071289 10.18530273 C-16.11709027 8.70521864 -15.98948381 7.22620199 -15.85571289 5.74780273 C-15.78610352 4.9240918 -15.71649414 4.10038086 -15.64477539 3.25170898 C-15.50813477 2.56979492 -15.37149414 1.88788086 -15.23071289 1.18530273 C-10.83778397 -1.01116173 -4.8848984 -0.00054659 0 0 Z " fill="#2C3245" transform="translate(456.230712890625,170.814697265625)"/>
<path d="M0 0 C1.06116531 0.03541649 1.06116531 0.03541649 2.14376831 0.07154846 C4.40594505 0.14819459 6.66778023 0.23221437 8.9296875 0.31640625 C10.4622228 0.36962602 11.99477484 0.42236643 13.52734375 0.47460938 C17.28667511 0.60381092 21.04571658 0.73962662 24.8046875 0.87890625 C25.57222956 8.15634205 24.12505182 12.12844041 19.7421875 17.87890625 C19.24283691 18.56807129 18.74348633 19.25723633 18.22900391 19.96728516 C16.77769745 21.95680587 15.29893133 23.92150389 13.8046875 25.87890625 C13.06089844 26.85601562 12.31710937 27.833125 11.55078125 28.83984375 C10.39619361 30.32947874 9.23044124 31.81062769 8.046875 33.27734375 C6.7273542 34.87124789 6.7273542 34.87124789 5.8046875 36.87890625 C6.40531006 36.87366943 7.00593262 36.86843262 7.62475586 36.86303711 C10.33055588 36.84232611 13.03633927 36.829265 15.7421875 36.81640625 C16.68771484 36.80802734 17.63324219 36.79964844 18.60742188 36.79101562 C19.95610352 36.78618164 19.95610352 36.78618164 21.33203125 36.78125 C22.58101196 36.77339478 22.58101196 36.77339478 23.85522461 36.76538086 C25.8046875 36.87890625 25.8046875 36.87890625 26.8046875 37.87890625 C26.9375 39.69140625 26.9375 39.69140625 26.9296875 41.87890625 C26.93355469 42.96171875 26.93355469 42.96171875 26.9375 44.06640625 C26.8046875 45.87890625 26.8046875 45.87890625 25.8046875 46.87890625 C23.06574665 46.96749271 20.3521548 46.99414104 17.61328125 46.9765625 C16.79344254 46.97514755 15.97360382 46.9737326 15.12892151 46.97227478 C12.49997368 46.96665914 9.87110977 46.95410404 7.2421875 46.94140625 C5.46419393 46.93639326 3.68619904 46.93183001 1.90820312 46.92773438 C-2.45966795 46.91668464 -6.82747598 46.89940956 -11.1953125 46.87890625 C-11.37604646 40.97029616 -10.79632483 38.61708037 -7.1953125 33.87890625 C-6.18969268 32.34089946 -5.19002369 30.79899064 -4.1953125 29.25390625 C-2.67370927 26.89707516 -1.23325251 24.9166945 0.7578125 22.93359375 C3.01975988 20.66301298 4.74622706 18.27204074 6.5546875 15.62890625 C7.16828125 14.736875 7.781875 13.84484375 8.4140625 12.92578125 C8.87296875 12.2503125 9.331875 11.57484375 9.8046875 10.87890625 C8.51691406 10.89050781 7.22914063 10.90210938 5.90234375 10.9140625 C4.22395978 10.92343895 2.54557424 10.9325393 0.8671875 10.94140625 C-0.40801758 10.95397461 -0.40801758 10.95397461 -1.70898438 10.96679688 C-2.51787109 10.97001953 -3.32675781 10.97324219 -4.16015625 10.9765625 C-4.909021 10.98179932 -5.65788574 10.98703613 -6.42944336 10.99243164 C-8.1953125 10.87890625 -8.1953125 10.87890625 -9.1953125 9.87890625 C-9.26711214 8.35962587 -9.27923257 6.83723143 -9.2578125 5.31640625 C-9.24878906 4.49011719 -9.23976563 3.66382813 -9.23046875 2.8125 C-9.21886719 2.17441406 -9.20726562 1.53632813 -9.1953125 0.87890625 C-6.22129914 -0.60810043 -3.24712324 -0.12729307 0 0 Z " fill="#272D41" transform="translate(409.1953125,171.12109375)"/>
<path d="M0 0 C3.89943359 1.8413992 6.26178492 3.98399384 8.2734375 7.84375 C10.15951072 13.4411286 9.81441212 19.66831134 7.625 25.125 C6 28 6 28 4 29 C4.63808594 29.31710938 5.27617187 29.63421875 5.93359375 29.9609375 C12.48116903 33.65863212 12.48116903 33.65863212 13.9609375 37.484375 C14.81883924 43.92817033 14.81883924 43.92817033 12.34375 47.16796875 C9.68112466 49.24925423 7.40602337 50.17525581 4.1875 51.1875 C2.69283203 51.67283203 2.69283203 51.67283203 1.16796875 52.16796875 C-14.58721043 56.30588881 -33.59254649 55.64032007 -48.6875 49.5 C-51 48 -51 48 -53 45 C-52.7578125 42.51953125 -52.7578125 42.51953125 -52.125 39.8125 C-51.92132813 38.91144531 -51.71765625 38.01039063 -51.5078125 37.08203125 C-51.34023437 36.39496094 -51.17265625 35.70789063 -51 35 C-50.01 35 -49.02 35 -48 35 C-48.99 37.475 -48.99 37.475 -50 40 C-48.41800369 40.64910154 -46.83434276 41.29414694 -45.25 41.9375 C-43.92742187 42.47697266 -43.92742187 42.47697266 -42.578125 43.02734375 C-38.05998406 44.73191511 -34.33894427 45.11972247 -29.484375 45.09765625 C-27.60878906 45.09282227 -27.60878906 45.09282227 -25.6953125 45.08789062 C-24.39335938 45.07951172 -23.09140625 45.07113281 -21.75 45.0625 C-20.43257812 45.05798828 -19.11515625 45.05347656 -17.7578125 45.04882812 C-14.50516259 45.03704316 -11.25260416 45.02059011 -8 45 C-8 44.34 -8 43.68 -8 43 C-9.25296875 43.02320313 -10.5059375 43.04640625 -11.796875 43.0703125 C-13.4479107 43.08907427 -15.09895285 43.10727403 -16.75 43.125 C-17.575 43.14175781 -18.4 43.15851563 -19.25 43.17578125 C-20.04921875 43.18222656 -20.8484375 43.18867188 -21.671875 43.1953125 C-22.4050293 43.20578613 -23.13818359 43.21625977 -23.89355469 43.22705078 C-26.29896076 42.96777544 -27.91251494 42.19225925 -30 41 C-28.15164517 39.15164517 -24.98167714 39.78029776 -22.5 39.6875 C-16.33236146 39.27925509 -11.19080333 38.49115976 -6 35 C-3.67722584 32.3908613 -3.67722584 32.3908613 -2 30 C-1.01 30 -0.02 30 1 30 C1.268125 29.46375 1.53625 28.9275 1.8125 28.375 C3 26 3 26 4.625 23.4375 C6.70266422 18.24333946 7.36314154 12.28945893 5.16796875 6.9921875 C3.71194148 4.73452724 2.41833548 3.20916774 0 2 C0 1.34 0 0.68 0 0 Z M-33 47 C-33 47.33 -33 47.66 -33 48 C-30.69 48 -28.38 48 -26 48 C-26 47.67 -26 47.34 -26 47 C-28.31 47 -30.62 47 -33 47 Z M-18 47 C-18 47.33 -18 47.66 -18 48 C-14.37 48 -10.74 48 -7 48 C-7 47.67 -7 47.34 -7 47 C-10.63 47 -14.26 47 -18 47 Z " fill="#15192E" transform="translate(141,169)"/>
<path d="M0 0 C0.66 0.33 1.32 0.66 2 1 C1.67 4.63 1.34 8.26 1 12 C-0.22976563 12.25523437 -0.22976563 12.25523437 -1.484375 12.515625 C-3.10085938 12.87914062 -3.10085938 12.87914062 -4.75 13.25 C-5.81734375 13.48203125 -6.8846875 13.7140625 -7.984375 13.953125 C-11.33990345 15.11799757 -12.82673689 16.21741079 -15 19 C-16.07966487 22.26378858 -16.19424784 25.43893941 -16.31640625 28.859375 C-16.35830078 29.97441406 -16.40019531 31.08945313 -16.44335938 32.23828125 C-16.50233398 33.97658203 -16.50233398 33.97658203 -16.5625 35.75 C-16.60568359 36.92433594 -16.64886719 38.09867188 -16.69335938 39.30859375 C-16.79934717 42.20559355 -16.90016916 45.1027815 -17 48 C-21.29 48 -25.58 48 -30 48 C-30 32.82 -30 17.64 -30 2 C-26.37 2 -22.74 2 -19 2 C-18.67 3.98 -18.34 5.96 -18 8 C-16.8553125 7.2884375 -16.8553125 7.2884375 -15.6875 6.5625 C-13 5 -13 5 -10 4 C-9.67 3.01 -9.34 2.02 -9 1 C-6.01405576 -0.49297212 -3.29146376 -0.11755228 0 0 Z " fill="#0C1428" transform="translate(343,170)"/>
<path d="M0 0 C1.68933922 1.6436814 3.35259924 3.3142876 5 5 C5.928125 5.5775 6.85625 6.155 7.8125 6.75 C10.16722012 9.17199783 10.51682112 9.88433395 10.875 13.125 C10.57855684 19.74556383 5.41003909 23.58996091 1 28 C0.67 28.66 0.34 29.32 0 30 C-0.66 30 -1.32 30 -2 30 C-2.433125 29.2575 -2.86625 28.515 -3.3125 27.75 C-5.17695748 24.71162484 -7.19592787 23.15697856 -10 21 C-12.45130351 17.32304474 -12.82249281 14.27192692 -12 10 C-9.8125 7.3125 -9.8125 7.3125 -7 5 C-6.113125 4.071875 -5.22625 3.14375 -4.3125 2.1875 C-2 0 -2 0 0 0 Z " fill="#94A1A8" transform="translate(121,173)"/>
<path d="M0 0 C0.66 0.33 1.32 0.66 2 1 C-0.64 3.64 -3.28 6.28 -6 9 C-5.01 9.33 -4.02 9.66 -3 10 C-4.07122565 12.72675621 -4.98922337 13.99152359 -7.32421875 15.828125 C-10.03644429 18.02958106 -11.97617861 20.2547377 -14.125 23 C-17.44716637 27.14994868 -20.87780442 31.11564691 -24.5 35 C-32.17171262 43.25743121 -39.13803596 52.06400182 -46 61 C-47 58 -47 58 -46.109375 55.765625 C-45.66078125 54.93546875 -45.2121875 54.1053125 -44.75 53.25 C-42.62961863 49.22127539 -40.75017158 45.20041179 -39 41 C-38.67 40.34 -38.34 39.68 -38 39 C-37.34 39 -36.68 39 -36 39 C-35.62488281 37.92298828 -35.62488281 37.92298828 -35.2421875 36.82421875 C-33.88152525 33.73063759 -32.23664746 31.44608296 -30.125 28.8125 C-29.44695312 27.95269531 -28.76890625 27.09289062 -28.0703125 26.20703125 C-26 24 -26 24 -23.8671875 22.94921875 C-21.84417505 22.15685902 -21.84417505 22.15685902 -21.08959961 20.13183594 C-19.89370898 17.79203826 -18.70155221 16.62171494 -16.69921875 14.94140625 C-15.72758789 14.11479492 -15.72758789 14.11479492 -14.73632812 13.27148438 C-14.06021484 12.70751953 -13.38410156 12.14355469 -12.6875 11.5625 C-8.28420599 7.85109118 -4.00390904 4.14331013 0 0 Z " fill="#323548" transform="translate(208,13)"/>
<path d="M0 0 C0 3.60667024 -0.67413732 4.16181072 -2.95703125 6.8359375 C-3.88418945 7.93808594 -3.88418945 7.93808594 -4.83007812 9.0625 C-5.48427734 9.825625 -6.13847656 10.58875 -6.8125 11.375 C-12.36649853 17.85512379 -12.36649853 17.85512379 -17 25 C-18.34359014 27.0486424 -19.69823022 29.09007049 -21.0625 31.125 C-21.75472656 32.15882812 -22.44695312 33.19265625 -23.16015625 34.2578125 C-24.07087891 35.61519531 -24.07087891 35.61519531 -25 37 C-25.66 37.99 -26.32 38.98 -27 40 C-27.99 39.67 -28.98 39.34 -30 39 C-33.6832449 43.14978925 -37.01298499 47.30611927 -40 52 C-40.66 52.99 -41.32 53.98 -42 55 C-42.66 55 -43.32 55 -44 55 C-44 55.99 -44 56.98 -44 58 C-43.34 58.33 -42.68 58.66 -42 59 C-45.62632655 65.12357707 -49.3485099 71.17393629 -53.19140625 77.1640625 C-53.78824219 78.09992188 -54.38507813 79.03578125 -55 80 C-55.3822876 80.5765332 -55.7645752 81.15306641 -56.15844727 81.74707031 C-59.63290476 87.09488395 -62.26312494 92.66316125 -64.8125 98.5 C-65.42254883 99.87671875 -65.42254883 99.87671875 -66.04492188 101.28125 C-67.03537446 103.5185076 -68.02026135 105.75803512 -69 108 C-70.18760654 104.58472417 -69.84615115 102.85860349 -68.41015625 99.578125 C-68.04220947 98.72565186 -67.6742627 97.87317871 -67.29516602 96.99487305 C-66.88838623 96.08906494 -66.48160645 95.18325684 -66.0625 94.25 C-65.64863037 93.3113208 -65.23476074 92.3726416 -64.80834961 91.40551758 C-59.34401289 79.12407869 -53.55666701 67.37590703 -46.14868164 56.13745117 C-43.62300925 52.3893817 -43.62300925 52.3893817 -43 48 C-43.66 47.67 -44.32 47.34 -45 47 C-44.40703125 46.45859375 -43.8140625 45.9171875 -43.203125 45.359375 C-40.82192007 42.80929029 -39.36579263 40.33469502 -37.75 37.25 C-37.22921875 36.26515625 -36.7084375 35.2803125 -36.171875 34.265625 C-35.59179688 33.14414063 -35.59179688 33.14414063 -35 32 C-34.67 32.66 -34.34 33.32 -34 34 C-34.99609375 36.3125 -34.99609375 36.3125 -36.4375 39 C-38.37773011 42.32910995 -38.37773011 42.32910995 -39 46 C-38.31035156 45.10539062 -37.62070313 44.21078125 -36.91015625 43.2890625 C-31.20072007 35.92646459 -25.3133012 28.85859593 -19 22 C-12.55454395 14.76560822 -6.29768078 7.36280577 0 0 Z M-25 32 C-25 35 -25 35 -25 35 Z M-51 68 C-50 70 -50 70 -50 70 Z M-52 70 C-52 73 -52 73 -52 73 Z M-54 73 C-53 75 -53 75 -53 75 Z " fill="#EDEDEE" transform="translate(201,27)"/>
<path d="M0 0 C1.0431271 3.12938131 0.98072309 4.99465593 0.8125 8.25 C0.73183489 13.7938929 1.96704235 16.45056353 5 21 C5 21.99 5 22.98 5 24 C7.14751227 25.5578092 7.14751227 25.5578092 10 27 C11.27276416 27.72579113 12.54356908 28.45502768 13.8125 29.1875 C15.3903125 30.0846875 15.3903125 30.0846875 17 31 C16.67 31.99 16.34 32.98 16 34 C23.26 34 30.52 34 38 34 C38 35.32 38 36.64 38 38 C33.54179367 38.08800873 29.08381461 38.14072922 24.625 38.1875 C23.37332031 38.21263672 22.12164062 38.23777344 20.83203125 38.26367188 C11.39756211 38.33776456 2.9213942 37.54497594 -5 32 C-2.19524793 24.8946281 -2.19524793 24.8946281 2 23 C1.54336929 20.86905668 1.09300831 19.15631054 -0.02734375 17.2734375 C-1.33249677 14.22283888 -1.2285417 11.68072236 -1.1875 8.375 C-1.18105469 7.22773438 -1.17460938 6.08046875 -1.16796875 4.8984375 C-1 2 -1 2 0 0 Z " fill="#1E2134" transform="translate(95,177)"/>
<path d="M0 0 C0.33 0 0.66 0 1 0 C1 1.98 1 3.96 1 6 C-9.50141491 13.42783006 -22.5004377 13.284821 -34.875 13.375 C-36.02774414 13.38885742 -37.18048828 13.40271484 -38.36816406 13.41699219 C-45.22657397 13.3792759 -50.62678011 12.55740671 -57 10 C-57 9.34 -57 8.68 -57 8 C-57.639375 7.731875 -58.27875 7.46375 -58.9375 7.1875 C-61 6 -61 6 -62 3 C-61.34 2.67 -60.68 2.34 -60 2 C-59.195625 2.4125 -58.39125 2.825 -57.5625 3.25 C-48.88802473 7.51114575 -40.25759828 8.52904456 -30.6875 8.4375 C-29.59606689 8.43137695 -28.50463379 8.42525391 -27.38012695 8.41894531 C-13.5453645 8.17680496 -13.5453645 8.17680496 -1.70703125 1.859375 C-1.14371094 1.24578125 -0.58039063 0.6321875 0 0 Z " fill="#01010A" transform="translate(151,209)"/>
<path d="M0 0 C-1.48232637 4.19087037 -3.58816879 7.56686853 -6.0625 11.25 C-11.30587188 19.18807775 -15.6675507 27.53994533 -20 36 C-20.66 36 -21.32 36 -22 36 C-21.32068739 27.95550861 -19.23915702 21.3617205 -16 14 C-15.34 14 -14.68 14 -14 14 C-14 11.36 -14 8.72 -14 6 C-12.02 6 -10.04 6 -8 6 C-7.9071875 4.824375 -7.9071875 4.824375 -7.8125 3.625 C-7 1 -7 1 -4.5625 -0.375 C-2 -1 -2 -1 0 0 Z " fill="#52535F" transform="translate(160,75)"/>
<path d="M0 0 C0.74121094 0.04382813 1.48242188 0.08765625 2.24609375 0.1328125 C7.74469484 0.49469484 7.74469484 0.49469484 8.875 1.625 C10.1125 1.58375 11.35 1.5425 12.625 1.5 C16.50729535 1.43017454 18.71512902 2.25509676 21.875 4.625 C21.545 5.945 21.215 7.265 20.875 8.625 C19.555 8.295 18.235 7.965 16.875 7.625 C17.865 6.965 18.855 6.305 19.875 5.625 C17.235 4.965 14.595 4.305 11.875 3.625 C11.545 4.615 11.215 5.605 10.875 6.625 C8.9375 6.25 8.9375 6.25 6.875 5.625 C6.545 4.965 6.215 4.305 5.875 3.625 C-0.22281001 3.40415376 -5.34142935 3.61332325 -11.125 5.625 C-11.125 5.955 -11.125 6.285 -11.125 6.625 C-9.475 6.955 -7.825 7.285 -6.125 7.625 C-9.125 9.625 -9.125 9.625 -11.125 9.625 C-11.00125 10.74455078 -11.00125 10.74455078 -10.875 11.88671875 C-11.125 14.625 -11.125 14.625 -12.875 16.64453125 C-13.6175 17.23621094 -14.36 17.82789063 -15.125 18.4375 C-15.8675 19.04207031 -16.61 19.64664063 -17.375 20.26953125 C-17.9525 20.71683594 -18.53 21.16414063 -19.125 21.625 C-19.125 17.33964033 -16.8733722 15.77557301 -14.125 12.625 C-13.795 11.965 -13.465 11.305 -13.125 10.625 C-15.6 9.635 -15.6 9.635 -18.125 8.625 C-18 6.875 -18 6.875 -17.125 4.625 C-11.22752148 0.13778808 -7.2013379 -0.5062452 0 0 Z " fill="#555861" transform="translate(116.125,155.375)"/>
<path d="M0 0 C6.75 -0.125 6.75 -0.125 9 1 C8.67 4.63 8.34 8.26 8 12 C6.77023437 12.25523437 6.77023437 12.25523437 5.515625 12.515625 C3.89914062 12.87914062 3.89914062 12.87914062 2.25 13.25 C1.18265625 13.48203125 0.1153125 13.7140625 -0.984375 13.953125 C-4.33990345 15.11799757 -5.82673689 16.21741079 -8 19 C-9.07966487 22.26378858 -9.19424784 25.43893941 -9.31640625 28.859375 C-9.35830078 29.97441406 -9.40019531 31.08945313 -9.44335938 32.23828125 C-9.50233398 33.97658203 -9.50233398 33.97658203 -9.5625 35.75 C-9.60568359 36.92433594 -9.64886719 38.09867188 -9.69335938 39.30859375 C-9.79934717 42.20559355 -9.90016916 45.1027815 -10 48 C-14.29 48 -18.58 48 -23 48 C-23 32.82 -23 17.64 -23 2 C-22.01 2.495 -22.01 2.495 -21 3 C-21 17.52 -21 32.04 -21 47 C-17.7 47 -14.4 47 -11 47 C-11.02618408 46.14768799 -11.05236816 45.29537598 -11.0793457 44.41723633 C-11.16481492 41.23972873 -11.22736789 38.0628089 -11.2746582 34.88452148 C-11.29972617 33.51192898 -11.33379082 32.13946898 -11.37719727 30.76733398 C-11.43817531 28.78949304 -11.46361009 26.81065816 -11.48828125 24.83203125 C-11.51446533 23.64327393 -11.54064941 22.4545166 -11.56762695 21.22973633 C-10.83314302 17.05060174 -9.22174965 15.66520372 -6 13 C-1.7975546 10.19836974 1.00104935 10.85510288 6 11 C6 7.7 6 4.4 6 1 C4.02 1 2.04 1 0 1 C0 0.67 0 0.34 0 0 Z " fill="#F3F4F5" transform="translate(336,170)"/>
<path d="M0 0 C0.66 0.33 1.32 0.66 2 1 C1.34 2.65 0.68 4.3 0 6 C1.58199631 6.64910154 3.16565724 7.29414694 4.75 7.9375 C5.63171875 8.29714844 6.5134375 8.65679687 7.421875 9.02734375 C14.06359803 11.53308471 20.52456642 11.2210224 27.5625 11.25 C28.78775391 11.270625 30.01300781 11.29125 31.27539062 11.3125 C41.58792674 11.35645327 49.82340926 9.70594397 59 5 C59.66 5.33 60.32 5.66 61 6 C56.23982631 11.16633185 52.19912369 12.79629632 45.2578125 13.67578125 C43.03550612 13.76468768 43.03550612 13.76468768 42 15 C27.21564633 16.19694656 12.36233083 16.0461697 -1 9 C0.15173355 11.46800047 1.04783565 13.04783565 3 15 C1.125 14.6875 1.125 14.6875 -1 14 C-3 11 -3 11 -2.79296875 8.5546875 C-2.59316406 7.67039063 -2.39335938 6.78609375 -2.1875 5.875 C-1.99542969 4.98554688 -1.80335937 4.09609375 -1.60546875 3.1796875 C-1 1 -1 1 0 0 Z M17 13 C17 13.33 17 13.66 17 14 C19.31 14 21.62 14 24 14 C24 13.67 24 13.34 24 13 C21.69 13 19.38 13 17 13 Z " fill="#D6DDDD" transform="translate(91,203)"/>
<path d="M0 0 C3.77381819 0.52414142 6.49153512 1.02700459 9 4 C9.89731638 7.20375182 9.85942248 9.7884739 9 13 C6.69272694 16.39184488 4.05610638 19.26694927 1 22 C0.67 22 0.34 22 0 22 C0 18.7 0 15.4 0 12 C-1.32 12.33 -2.64 12.66 -4 13 C-4.33 10.36 -4.66 7.72 -5 5 C-1.535 4.505 -1.535 4.505 2 4 C2 4.66 2 5.32 2 6 C2.66 6 3.32 6 4 6 C4 5.01 4 4.02 4 3 C2.68 2.67 1.36 2.34 0 2 C0 1.34 0 0.68 0 0 Z " fill="#79898F" transform="translate(122,178)"/>
<path d="M0 0 C0.99 0.495 0.99 0.495 2 1 C1.67 20.47 1.34 39.94 1 60 C21.01087897 60.86674003 21.01087897 60.86674003 39 53.5 C42.07800593 49.65249259 42.11519857 46.77800409 42.0625 42 C42.05347656 40.948125 42.04445312 39.89625 42.03515625 38.8125 C42.02355469 37.884375 42.01195312 36.95625 42 36 C42 35.01 42 34.02 42 33 C44.50643377 34.85258148 45.01543421 36.05936235 45.8125 39.125 C46.03534666 43.73049762 45.21170628 47.58378123 44 52 C43.34 52 42.68 52 42 52 C41.79375 52.5775 41.5875 53.155 41.375 53.75 C39.45737113 56.88793816 37.17318478 58.19564003 34 60 C22.88194661 62.22361068 11.33823423 61 0 61 C0 40.87 0 20.74 0 0 Z " fill="#F0F1F2" transform="translate(36,157)"/>
<path d="M0 0 C0 3.78305096 -0.40583568 7.25676478 -1 11 C-1.66 11.66 -2.32 12.32 -3 13 C-4.47733783 17.74303197 -5.52024878 21.13520389 -4 26 C-3.01 26.33 -2.02 26.66 -1 27 C-0.67 27.99 -0.34 28.98 0 30 C-0.66 30 -1.32 30 -2 30 C-2.33 32.31 -2.66 34.62 -3 37 C-1.515 37.495 -1.515 37.495 0 38 C-7.26 38 -14.52 38 -22 38 C-22 37.67 -22 37.34 -22 37 C-17.38 37 -12.76 37 -8 37 C-8 35.35 -8 33.7 -8 32 C-9.65 31.67 -11.3 31.34 -13 31 C-13 29.02 -13 27.04 -13 25 C-11.68 25 -10.36 25 -9 25 C-9 26.32 -9 27.64 -9 29 C-8.01 29 -7.02 29 -6 29 C-6.165 27.9275 -6.33 26.855 -6.5 25.75 C-7.29784692 19.76614813 -6.55755965 16.42202645 -4 11 C-3.67 10.67 -3.34 10.34 -3 10 C-2.7746669 7.9720021 -2.55232815 5.94325126 -2.37890625 3.91015625 C-2 2 -2 2 0 0 Z " fill="#E7E8E9" transform="translate(133,117)"/>
<path d="M0 0 C3.625 -0.1875 3.625 -0.1875 7 0 C8.31225809 3.93677426 7.3393954 5.7794262 6.0625 9.6875 C5.68222656 10.86699219 5.30195313 12.04648437 4.91015625 13.26171875 C4.60980469 14.16535156 4.30945313 15.06898437 4 16 C3.34 16 2.68 16 2 16 C1.7628125 17.00160156 1.525625 18.00320312 1.28125 19.03515625 C0.05490617 23.31980294 -2.05405757 26.74514282 -4.5 30.4375 C-4.90347656 31.07365234 -5.30695313 31.70980469 -5.72265625 32.36523438 C-6.75487275 33.95103233 -7.87112362 35.48149278 -9 37 C-9.66 37 -10.32 37 -11 37 C-11.2475 37.556875 -11.495 38.11375 -11.75 38.6875 C-14.30027291 43.40550489 -17.14532589 46.63490236 -22 49 C-22.99 49 -23.98 49 -25 49 C-25 49.66 -25 50.32 -25 51 C-25.66 51 -26.32 51 -27 51 C-25.84255469 47.52766407 -24.74414607 47.1493757 -21.796875 45.26171875 C-7.49025468 35.21598318 0.3788321 16.92664237 6 1 C3.36 1.66 0.72 2.32 -2 3 C-1.34 2.01 -0.68 1.02 0 0 Z " fill="#E8E9EA" transform="translate(221,4)"/>
<path d="M0 0 C1.32 0.33 2.64 0.66 4 1 C4 1.66 4 2.32 4 3 C3.01 3.66 2.02 4.32 1 5 C1.495 6.485 1.495 6.485 2 8 C0.35 9.65 -1.3 11.3 -3 13 C-2.505 13.99 -2.505 13.99 -2 15 C-2.6703125 14.8246875 -3.340625 14.649375 -4.03125 14.46875 C-7.64651994 13.8979179 -10.85412589 14.18421563 -14.5 14.5 C-21.76012277 15.06435848 -28.75225491 14.80668396 -36 14 C-35.67 13.34 -35.34 12.68 -35 12 C-34.34 12 -33.68 12 -33 12 C-33 11.34 -33 10.68 -33 10 C-31.70582153 10.01571045 -31.70582153 10.01571045 -30.38549805 10.03173828 C-27.18189479 10.06583983 -23.9783841 10.09090857 -20.7746582 10.10986328 C-19.38855952 10.1199157 -18.00248201 10.1335597 -16.61645508 10.15087891 C-14.6233025 10.17515952 -12.62999467 10.18542031 -10.63671875 10.1953125 C-9.43748779 10.20578613 -8.23825684 10.21625977 -7.00268555 10.22705078 C-3.81837173 10.23308072 -3.81837173 10.23308072 -1 8 C-1.20625 7.21625 -1.4125 6.4325 -1.625 5.625 C-1.74875 4.75875 -1.8725 3.8925 -2 3 C-1.34 2.34 -0.68 1.68 0 1 C0 0.67 0 0.34 0 0 Z " fill="#243349" transform="translate(143,154)"/>
<path d="M0 0 C2.89292319 2.61296288 4.37431204 4.15648822 5 8 C5.12041097 10.63784028 5.18508041 13.23765018 5.1875 15.875 C5.19974609 16.56980469 5.21199219 17.26460937 5.22460938 17.98046875 C5.23702874 22.37692393 4.61908407 25.91709235 3 30 C2.34 30 1.68 30 1 30 C0.773125 30.5775 0.54625 31.155 0.3125 31.75 C-2.17167294 36.00858218 -5.12189121 37.70729707 -9.75 39.25 C-17.4420089 40.85190054 -24.89344036 40.63855854 -32 37 C-34.5625 34.3125 -34.5625 34.3125 -36 32 C-35.34 31.67 -34.68 31.34 -34 31 C-32.824375 32.2065625 -32.824375 32.2065625 -31.625 33.4375 C-27.59362873 37.37288624 -24.6504607 37.21128702 -19.25 37.25 C-18.54617187 37.270625 -17.84234375 37.29125 -17.1171875 37.3125 C-12.3381999 37.34803151 -9.15115707 36.60057781 -5 34 C0.97988708 27.74829987 2.3369792 22.90525465 2.25 14.5625 C2.25773437 13.82451172 2.26546875 13.08652344 2.2734375 12.32617188 C2.25746713 7.83450437 1.68914015 4.2295533 0 0 Z " fill="#DBDDE0" transform="translate(196,179)"/>
<path d="M0 0 C0.66 0.33 1.32 0.66 2 1 C1.43128637 5.15310613 0.06281623 7.83824779 -2.25 11.3125 C-3.5006781 13.20788606 -4.75060287 15.10376931 -6 17 C-6.38953857 17.58378418 -6.77907715 18.16756836 -7.18041992 18.76904297 C-10.6465534 24.10768534 -13.26809248 29.67453453 -15.8125 35.5 C-16.21919922 36.4178125 -16.62589844 37.335625 -17.04492188 38.28125 C-18.03537446 40.5185076 -19.02026135 42.75803512 -20 45 C-21.18760654 41.58472417 -20.84615115 39.85860349 -19.41015625 36.578125 C-19.04172607 35.72468506 -18.6732959 34.87124512 -18.29370117 33.99194336 C-17.88740479 33.08710205 -17.4811084 32.18226074 -17.0625 31.25 C-16.65298096 30.32002197 -16.24346191 29.39004395 -15.8215332 28.43188477 C-13.20872027 22.55418861 -10.51436087 16.71540438 -7.6875 10.9375 C-7.37498291 10.29006836 -7.06246582 9.64263672 -6.74047852 8.97558594 C-4.93332076 5.37956831 -3.01630988 2.67006681 0 0 Z M-2 5 C-1 7 -1 7 -1 7 Z M-3 7 C-3 10 -3 10 -3 10 Z M-5 10 C-4 12 -4 12 -4 12 Z " fill="#E6E7E7" transform="translate(152,90)"/>
<path d="M0 0 C4.88189535 2.05662826 6.68999496 5.38815248 9 10 C12.85370954 20.05917002 11.09805374 29.28662003 7 39 C4.20159941 43.72833204 1.22542291 45.37240926 -4 47 C-8.77891601 47.50890287 -11.92578361 47.71614426 -16 45 C-15.13117188 44.97421875 -14.26234375 44.9484375 -13.3671875 44.921875 C-4.36505588 44.67018183 -4.36505588 44.67018183 3 40 C7.02178224 34.04456498 7.6485167 28.55336963 7.5625 21.5 C7.58634766 20.60152344 7.61019531 19.70304687 7.63476562 18.77734375 C7.62033464 12.16795055 5.95943823 8.22137113 2 3 C1.34 2.01 0.68 1.02 0 0 Z " fill="#DEE1E3" transform="translate(293,172)"/>
<path d="M0 0 C1.32 0.33 2.64 0.66 4 1 C4 2.98 4 4.96 4 7 C1.69 7.33 -0.62 7.66 -3 8 C-2.7525 8.7425 -2.7525 8.7425 -2.5 9.5 C-1.24159306 15.7920347 -1.4296555 20.58292559 -5 26 C-9.01113105 30.24707993 -13.39140696 31.23968017 -19 32 C-20.9996695 32.03635763 -23.00059462 32.04876598 -25 32 C-25.99 32.495 -25.99 32.495 -27 33 C-27 33.99 -27 34.98 -27 36 C-27.66 36 -28.32 36 -29 36 C-29.042721 34.33388095 -29.04063832 32.66617115 -29 31 C-27.18529401 29.18529401 -24.26205735 29.74125018 -21.8125 29.625 C-15.28625997 29.14659947 -11.34343821 28.34343821 -6.625 23.625 C-4.18034049 18.17152879 -4.68558292 12.88658645 -5 7 C-3.02 6.67 -1.04 6.34 1 6 C0.67 4.02 0.34 2.04 0 0 Z " fill="#EAECED" transform="translate(249,171)"/>
<path d="M0 0 C-1.03293147 2.82572058 -1.67952982 3.82978305 -4.3828125 5.265625 C-5.28773438 5.59046875 -6.19265625 5.9153125 -7.125 6.25 C-8.03507812 6.58515625 -8.94515625 6.9203125 -9.8828125 7.265625 C-10.58148438 7.50796875 -11.28015625 7.7503125 -12 8 C-11.31316563 12.3007868 -11.31316563 12.3007868 -10.1875 16.5 C-9.90147636 20.3136485 -11.69026159 22.06600797 -14 25 C-15.8125 27.0625 -15.8125 27.0625 -18 29 C-18.46921875 29.42410156 -18.9384375 29.84820312 -19.421875 30.28515625 C-25.10746758 34.92839019 -31.77532089 36 -39 36 C-39 35.34 -39 34.68 -39 34 C-38.07380859 33.99613281 -38.07380859 33.99613281 -37.12890625 33.9921875 C-28.85907545 33.61456966 -23.74160122 30.72054155 -17.91796875 24.9296875 C-14.25956406 20.89230953 -14.25956406 20.89230953 -12 16 C-12.98287008 13.99152635 -13.98377342 11.99180409 -15 10 C-15 8.68 -15 7.36 -15 6 C-14.31292969 5.73445313 -13.62585938 5.46890625 -12.91796875 5.1953125 C-12.01691406 4.84210937 -11.11585938 4.48890625 -10.1875 4.125 C-9.29417969 3.77695312 -8.40085938 3.42890625 -7.48046875 3.0703125 C-0.3649635 0 -0.3649635 0 0 0 Z " fill="#E7E8EA" transform="translate(202,55)"/>
<path d="M0 0 C8.91 0 17.82 0 27 0 C27 10.12599187 27 10.12599187 24.83984375 13.0625 C24.37884277 13.71009277 23.9178418 14.35768555 23.44287109 15.02490234 C22.94609863 15.67668457 22.44932617 16.3284668 21.9375 17 C21.43814941 17.68916504 20.93879883 18.37833008 20.42431641 19.08837891 C18.97300995 21.07789962 17.49424383 23.04259764 16 25 C15.25621094 25.97710937 14.51242187 26.95421875 13.74609375 27.9609375 C12.59150611 29.45057249 11.42575374 30.93172144 10.2421875 32.3984375 C8.9226667 33.99234164 8.9226667 33.99234164 8 36 C7.34 36 6.68 36 6 36 C6.61944885 32.55926531 7.92514165 30.44059348 10.01953125 27.6640625 C10.62990234 26.84679687 11.24027344 26.02953125 11.86914062 25.1875 C12.51044922 24.341875 13.15175781 23.49625 13.8125 22.625 C16.2182322 19.42392337 18.61513844 16.21665649 21 13 C21.43103027 12.42991211 21.86206055 11.85982422 22.30615234 11.27246094 C24.9729268 7.57295909 25.18442363 5.89345824 26 1 C17.42 1 8.84 1 0 1 C0 0.67 0 0.34 0 0 Z " fill="#E7E8EB" transform="translate(407,172)"/>
<path d="M0 0 C1.72953968 0.62396703 3.458615 1.24922128 5.1875 1.875 C6.15042969 2.22304687 7.11335938 2.57109375 8.10546875 2.9296875 C10.75634859 3.90990488 13.3813098 4.93720434 16 6 C16 6.99 16 7.98 16 9 C23.92 9.33 31.84 9.66 40 10 C40 10.33 40 10.66 40 11 C35.68763079 11.08789715 31.3754955 11.1406923 27.0625 11.1875 C25.85013672 11.21263672 24.63777344 11.23777344 23.38867188 11.26367188 C16.22490302 11.3219139 10.64146217 10.72966244 4 8 C4 7.34 4 6.68 4 6 C3.360625 5.731875 2.72125 5.46375 2.0625 5.1875 C0 4 0 4 -1 1 C-0.67 0.67 -0.34 0.34 0 0 Z " fill="#363943" transform="translate(90,211)"/>
<path d="M0 0 C3.15658858 0.68871024 4.80982922 2.04068446 6.93359375 4.421875 C7.74609375 7.171875 7.74609375 7.171875 7.93359375 9.421875 C8.59359375 9.421875 9.25359375 9.421875 9.93359375 9.421875 C10.01493166 11.33783468 10.07293742 13.25479432 10.12109375 15.171875 C10.17330078 16.77289063 10.17330078 16.77289063 10.2265625 18.40625 C9.90442161 21.72215355 9.16210461 23.01204173 6.93359375 25.421875 C6.89087275 23.75575595 6.89295543 22.08804615 6.93359375 20.421875 C7.26359375 20.091875 7.59359375 19.761875 7.93359375 19.421875 C8.16434457 18.07440416 8.34512438 16.71809935 8.49609375 15.359375 C8.64046875 14.06 8.78484375 12.760625 8.93359375 11.421875 C8.27359375 11.421875 7.61359375 11.421875 6.93359375 11.421875 C6.50046875 10.308125 6.06734375 9.194375 5.62109375 8.046875 C4.23448256 4.24675166 4.23448256 4.24675166 0.93359375 2.421875 C-2.6381674 2.50354989 -2.6381674 2.50354989 -6.06640625 3.421875 C-8.5537183 7.15284308 -8.32722346 10.04909459 -8.25390625 14.359375 C-8.25293945 15.43348633 -8.25293945 15.43348633 -8.25195312 16.52929688 C-8.22336284 19.95695423 -8.13545871 23.14629828 -7.06640625 26.421875 C-10.67087892 22.97411853 -11.25728229 20.8607961 -11.3984375 15.80273438 C-11.41261719 15.07892578 -11.42679687 14.35511719 -11.44140625 13.609375 C-11.47878906 12.89716797 -11.51617187 12.18496094 -11.5546875 11.45117188 C-11.62099009 7.46933319 -11.23330489 5.64039178 -8.79296875 2.4453125 C-5.4557724 -0.03128881 -3.98854238 -0.271432 0 0 Z " fill="#E6E8E9" transform="translate(282.06640625,179.578125)"/>
<path d="M0 0 C0.33 0 0.66 0 1 0 C1 20.79 1 41.58 1 63 C3.31 63 5.62 63 8 63 C8.33 61.35 8.66 59.7 9 58 C12.24208567 58.35049575 13.61527704 58.56221181 15.8125 61.0625 C16.204375 61.701875 16.59625 62.34125 17 63 C15.02 62.34 13.04 61.68 11 61 C10.67 61.99 10.34 62.98 10 64 C6.7 64 3.4 64 0 64 C-0.17097484 58.26090592 -0.33107194 52.52163407 -0.48217773 46.78198242 C-0.53471103 44.83984722 -0.58993918 42.89778257 -0.64819336 40.95581055 C-1.05697568 27.24560682 -0.84538258 13.6909665 0 0 Z " fill="#F1F2F2" transform="translate(260,154)"/>
<path d="M0 0 C1.32 0.66 2.64 1.32 4 2 C4 2.99 4 3.98 4 5 C4.66 5 5.32 5 6 5 C6 8.63 6 12.26 6 16 C5.34 16 4.68 16 4 16 C3.835 16.721875 3.67 17.44375 3.5 18.1875 C1.25263085 22.40131715 -1.64988536 24.15103319 -6 26 C-14.1897996 28.16757408 -22.66253043 28.64102576 -31 27 C-31.99 26.34 -32.98 25.68 -34 25 C-33.37544922 25.01571045 -32.75089844 25.0314209 -32.10742188 25.04760742 C-29.23837583 25.11052044 -26.36947558 25.14916731 -23.5 25.1875 C-22.51773438 25.21263672 -21.53546875 25.23777344 -20.5234375 25.26367188 C-12.02009705 25.34870528 -5.41823412 24.04069093 1 18 C3.69414604 13.95878094 3.5569631 10.74629425 3 6 C1.65253476 2.54653852 1.65253476 2.54653852 0 0 Z " fill="#D8DBDE" transform="translate(246,211)"/>
<path d="M0 0 C1.32 0 2.64 0 4 0 C3.40440894 4.86872054 1.27522585 8.59328841 -1.0625 12.8125 C-1.43955078 13.50537109 -1.81660156 14.19824219 -2.20507812 14.91210938 C-3.13083852 16.61128985 -4.06462312 18.30609425 -5 20 C-5.66 20 -6.32 20 -7 20 C-6.56000421 14.78952358 -6.12523387 9.84081049 -4 5 C-3.01 4.34 -2.02 3.68 -1 3 C-0.67 2.01 -0.34 1.02 0 0 Z " fill="#080913" transform="translate(145,91)"/>
<path d="M0 0 C0.66 0.33 1.32 0.66 2 1 C2.68302801 4.92741105 2.68960394 6.94892428 0.46484375 10.33984375 C-0.92558846 12.03568882 -2.33839486 13.71336199 -3.76953125 15.375 C-5.94064743 17.93014899 -7.85420318 20.54899575 -9.75 23.3125 C-11.55788726 25.94590656 -13.36422289 28.45048621 -15.375 30.9375 C-17.18778545 32.99882389 -17.18778545 32.99882389 -18 36 C-18.99 35.67 -19.98 35.34 -21 35 C-17.83481348 29.67097688 -14.51777839 24.59223521 -10.67578125 19.73046875 C-10.09207764 18.99046631 -9.50837402 18.25046387 -8.90698242 17.48803711 C-7.73563326 16.01690987 -6.55246574 14.55510166 -5.35668945 13.10375977 C-1.83317973 8.67516628 -0.2236411 5.69539327 0 0 Z " fill="#EEEFF1" transform="translate(475,172)"/>
<path d="M0 0 C1.07572266 -0.01611328 2.15144531 -0.03222656 3.25976562 -0.04882812 C4.81920898 -0.04979492 4.81920898 -0.04979492 6.41015625 -0.05078125 C7.82180054 -0.05525269 7.82180054 -0.05525269 9.26196289 -0.05981445 C12.41443347 0.37886769 14.33351333 1.5270356 16.9375 3.3125 C16.6075 4.6325 16.2775 5.9525 15.9375 7.3125 C14.6175 6.9825 13.2975 6.6525 11.9375 6.3125 C12.9275 5.6525 13.9175 4.9925 14.9375 4.3125 C12.2975 3.6525 9.6575 2.9925 6.9375 2.3125 C6.6075 3.3025 6.2775 4.2925 5.9375 5.3125 C4 4.9375 4 4.9375 1.9375 4.3125 C1.6075 3.6525 1.2775 2.9925 0.9375 2.3125 C-6.03919157 1.91924181 -11.57906189 2.68153961 -18.0625 5.3125 C-18.0625 4.3225 -18.0625 3.3325 -18.0625 2.3125 C-12.15641382 -0.26563501 -6.321558 -0.01900649 0 0 Z " fill="#F5F5F5" transform="translate(121.0625,156.6875)"/>
<path d="M0 0 C2.475 0.495 2.475 0.495 5 1 C4.32829194 4.8063457 3.27253436 8.35206816 2 12 C1.34 12 0.68 12 0 12 C-0.185625 12.845625 -0.37125 13.69125 -0.5625 14.5625 C-2.48151394 19.15144637 -4.90291736 22.15895729 -9 25 C-13.51376675 26.61401356 -17.40054899 27.53315034 -22 26 C-22 25.34 -22 24.68 -22 24 C-20.824375 24.0825 -19.64875 24.165 -18.4375 24.25 C-13.86679733 24.20163278 -10.40127122 23.11383985 -7 20 C-2.85782869 14.49655174 -0.16694232 8.50082697 2 2 C1.34 1.34 0.68 0.68 0 0 Z " fill="#E7E9EA" transform="translate(171,94)"/>
<path d="M0 0 C1.9375 0.6953125 1.9375 0.6953125 4 2 C4.75 4.2421875 4.75 4.2421875 5 6.875 C5.1546875 8.17050781 5.1546875 8.17050781 5.3125 9.4921875 C5 12 5 12 3.36328125 14.18359375 C0.69063072 16.23777969 -1.60170393 17.17768609 -4.8125 18.1875 C-6.30716797 18.67283203 -6.30716797 18.67283203 -7.83203125 19.16796875 C-15.21335969 21.10659139 -22.36114455 21.12363757 -29.9375 21.0625 C-31.53561523 21.05573242 -31.53561523 21.05573242 -33.16601562 21.04882812 C-35.77740291 21.03711787 -38.38867124 21.02071724 -41 21 C-41 20.67 -41 20.34 -41 20 C-40.4423999 19.98541748 -39.8847998 19.97083496 -39.31030273 19.95581055 C-18.82379718 19.87811698 -18.82379718 19.87811698 0 13 C0.66 13 1.32 13 2 13 C2.05416188 11.39620659 2.09286638 9.79188594 2.125 8.1875 C2.14820313 7.29417969 2.17140625 6.40085938 2.1953125 5.48046875 C2.18285827 2.74597286 2.18285827 2.74597286 0 0 Z " fill="#EDEEEF" transform="translate(150,202)"/>
<path d="M0 0 C3.77381819 0.52414142 6.49153512 1.02700459 9 4 C9.51419736 7.06233092 9.61301427 9.95149663 9 13 C7.47265625 14.78125 7.47265625 14.78125 6 16 C5.01 15.67 4.02 15.34 3 15 C3.33 12.69 3.66 10.38 4 8 C3.34 8 2.68 8 2 8 C2 7.34 2 6.68 2 6 C2.66 6 3.32 6 4 6 C4 5.01 4 4.02 4 3 C2.68 2.67 1.36 2.34 0 2 C0 1.34 0 0.68 0 0 Z " fill="#58666E" transform="translate(122,178)"/>
<path d="M0 0 C0 3.60667024 -0.67413732 4.16181072 -2.95703125 6.8359375 C-3.57513672 7.57070313 -4.19324219 8.30546875 -4.83007812 9.0625 C-5.48427734 9.825625 -6.13847656 10.58875 -6.8125 11.375 C-12.36763571 17.85330991 -12.36763571 17.85330991 -17 25 C-18.31037934 26.68477344 -19.63823078 28.35648543 -21 30 C-21.33 29.34 -21.66 28.68 -22 28 C-22.66 28.33 -23.32 28.66 -24 29 C-22.4020916 25.13762713 -19.77863743 22.41771409 -16.9375 19.4375 C-12.324033 14.51269473 -7.9989828 9.44719373 -3.77734375 4.1796875 C-2 2 -2 2 0 0 Z " fill="#D0D1D3" transform="translate(201,27)"/>
<path d="M0 0 C0.99 0.33 1.98 0.66 3 1 C5.77742477 7.06968926 4.8951004 12.83363484 3 19 C2.34 19 1.68 19 1 19 C0.79375 19.5775 0.5875 20.155 0.375 20.75 C-1.58448602 23.95643167 -3.69125885 25.25198581 -7 27 C-10.875 27.25 -10.875 27.25 -14 27 C-11.67877973 25.83938987 -9.36008122 24.70670389 -7 23.625 C-2.87767726 21.39207518 -0.495502 19.48650599 1 15 C1.09435979 13.00179272 1.12990301 11.00042797 1.125 9 C1.12757812 7.948125 1.13015625 6.89625 1.1328125 5.8125 C1.12353635 2.91873122 1.12353635 2.91873122 0 0 Z " fill="#DEE0E2" transform="translate(77,190)"/>
<path d="M0 0 C0 0.66 0 1.32 0 2 C-0.99 2.495 -0.99 2.495 -2 3 C-2.65213292 5.02463255 -2.65213292 5.02463255 -3 7 C-4.32 7.33 -5.64 7.66 -7 8 C-6.34 9.65 -5.68 11.3 -5 13 C-5.66 13 -6.32 13 -7 13 C-7 15.31 -7 17.62 -7 20 C-9.475 19.01 -9.475 19.01 -12 18 C-12.61403509 10.75438596 -12.61403509 10.75438596 -9.8125 7.3125 C-8.884375 6.549375 -7.95625 5.78625 -7 5 C-6.113125 4.071875 -5.22625 3.14375 -4.3125 2.1875 C-2 0 -2 0 0 0 Z " fill="#62707B" transform="translate(121,173)"/>
<path d="M0 0 C0.66 0.33 1.32 0.66 2 1 C1.79503906 1.58007812 1.59007812 2.16015625 1.37890625 2.7578125 C-0.14009813 7.1621984 -1.4047151 11.35677777 -2 16 C-1.34 16.33 -0.68 16.66 0 17 C-1.98 21.62 -3.96 26.24 -6 31 C-6.33 31 -6.66 31 -7 31 C-7.19670057 26.08248585 -6.54969891 22.62122446 -5 18 C-4.33017817 14.77480787 -3.71821371 11.54624674 -3.14453125 8.30273438 C-2.51474996 4.94051492 -1.92869349 2.89304023 0 0 Z " fill="#676971" transform="translate(140,95)"/>
<path d="M0 0 C0.66 0.33 1.32 0.66 2 1 C0.4198632 3.15473199 -1.10646634 5.10646634 -3 7 C-3.66 6.67 -4.32 6.34 -5 6 C-5 6.66 -5 7.32 -5 8 C-10.51278753 10.38390812 -16.08449224 10.60763524 -22 10 C-24.3359375 8.984375 -24.3359375 8.984375 -26 8 C-24.15164517 6.15164517 -20.98167714 6.78029776 -18.5 6.6875 C-11.47096529 6.24280597 -5.12496875 5.12496875 0 0 Z " fill="#C6CCCC" transform="translate(137,202)"/>
<path d="M0 0 C0.68359375 1.703125 0.68359375 1.703125 1 4 C-0.21484375 6.359375 -0.21484375 6.359375 -1.9375 8.75 C-2.50339844 9.54921875 -3.06929687 10.3484375 -3.65234375 11.171875 C-4.09707031 11.77515625 -4.54179687 12.3784375 -5 13 C-5.99 12.67 -6.98 12.34 -8 12 C-8.40992188 12.5053125 -8.81984375 13.010625 -9.2421875 13.53125 C-9.78101563 14.1809375 -10.31984375 14.830625 -10.875 15.5 C-11.40867188 16.1496875 -11.94234375 16.799375 -12.4921875 17.46875 C-12.98976562 17.9740625 -13.48734375 18.479375 -14 19 C-14.66 19 -15.32 19 -16 19 C-14.403238 15.3795343 -12.1849491 12.55570243 -9.6875 9.5 C-8.92824219 8.5615625 -8.16898438 7.623125 -7.38671875 6.65625 C-5.09369811 4.1042794 -2.73893391 2.05541235 0 0 Z M-3 5 C-3 8 -3 8 -3 8 Z " fill="#DCDCDF" transform="translate(179,54)"/>
<path d="M0 0 C0.33 0 0.66 0 1 0 C1 1.98 1 3.96 1 6 C-4.18082051 9.34594658 -7.84777564 10.56826496 -14 11 C-14 9.68 -14 8.36 -14 7 C-12.98679688 6.74476563 -12.98679688 6.74476563 -11.953125 6.484375 C-5.14594501 4.66828996 -5.14594501 4.66828996 0 0 Z " fill="#0B0C16" transform="translate(151,209)"/>
<path d="M0 0 C3.89943359 1.8413992 6.26178492 3.98399384 8.2734375 7.84375 C10.13388077 13.36506552 9.79271687 19.61121332 7.8125 25.0625 C5.80251591 28.32006042 4.66472327 29.10858083 1 30 C2.13404873 27.73190254 3.26368629 25.584187 4.625 23.4375 C6.70266422 18.24333946 7.36314154 12.28945893 5.16796875 6.9921875 C3.71194148 4.73452724 2.41833548 3.20916774 0 2 C0 1.34 0 0.68 0 0 Z " fill="#E4E5E7" transform="translate(141,169)"/>
<path d="M0 0 C1.65 0 3.3 0 5 0 C5 0.99 5 1.98 5 3 C4.34 3 3.68 3 3 3 C3.66 4.65 4.32 6.3 5 8 C2.44931155 10.35448165 1.28982642 10.98327924 -2.25 11.1875 C-3.1575 11.125625 -4.065 11.06375 -5 11 C-3.68 10.34 -2.36 9.68 -1 9 C-1.19471111 7.05000871 -1.19471111 7.05000871 -2 5 C-3.9837767 3.71563266 -3.9837767 3.71563266 -6 3 C-6 2.67 -6 2.34 -6 2 C-4.02 2 -2.04 2 0 2 C0 1.34 0 0.68 0 0 Z " fill="#0E141E" transform="translate(138,154)"/>
<path d="M0 0 C3.06073864 2.04049243 4.60142628 3.60171122 6 7 C6.74285307 11.75080451 6.47539895 15.14428189 4.125 19.375 C3.42375 20.24125 2.7225 21.1075 2 22 C1.34 22.99 0.68 23.98 0 25 C0.99 25.66 1.98 26.32 3 27 C2.67 27.66 2.34 28.32 2 29 C-0.03833424 27.7260411 -2.03852126 26.38938077 -4 25 C-4 24.34 -4 23.68 -4 23 C-3.21625 22.38125 -2.4325 21.7625 -1.625 21.125 C0.99169094 19.00672638 2.03568008 18.15595609 3 15 C3.43998704 9.4561633 3.27440461 6.63873987 0 2 C0 1.34 0 0.68 0 0 Z " fill="#E1E3E5" transform="translate(74,161)"/>
<path d="M0 0 C1.9375 0.375 1.9375 0.375 4 1 C4.33 1.66 4.66 2.32 5 3 C4.34 3 3.68 3 3 3 C3.33 3.66 3.66 4.32 4 5 C4.99 5.33 5.98 5.66 7 6 C7 6.99 7 7.98 7 9 C6.34 9 5.68 9 5 9 C5 8.34 5 7.68 5 7 C1.27385847 8.11854586 1.27385847 8.11854586 -1 11 C-2.32 10.34 -3.64 9.68 -5 9 C-5 8.01 -5 7.02 -5 6 C-3.68 5.67 -2.36 5.34 -1 5 C-0.67 3.35 -0.34 1.7 0 0 Z " fill="#EBEFEC" transform="translate(119,175)"/>
<path d="M0 0 C0.680625 -0.01675781 1.36125 -0.03351563 2.0625 -0.05078125 C4.52451507 0.41084658 5.41181179 1.43148959 7 3.3125 C6.39671875 3.20550781 5.7934375 3.09851563 5.171875 2.98828125 C0.19255759 2.14004937 0.19255759 2.14004937 -4.5 3.5625 C-7.43460007 6.98620008 -7.1347882 10.43829898 -7.125 14.75 C-7.12757813 15.88308594 -7.13015625 17.01617187 -7.1328125 18.18359375 C-7.02325193 20.76471183 -6.75864877 22.86194405 -6 25.3125 C-9.25551629 22.48161627 -9.84014516 20.1754237 -10.203125 15.9453125 C-10.30239456 10.6343911 -10.07256524 6.86444851 -7 2.3125 C-4.03082597 0.33305064 -3.34297721 0.01899419 0 0 Z " fill="#E1E3E6" transform="translate(177,179.6875)"/>
<path d="M0 0 C1.32 0.33 2.64 0.66 4 1 C4 3.97 4 6.94 4 10 C-3.11554329 13.55777165 -11.13537518 13.65446102 -19 13 C-21.36328125 11.98828125 -21.36328125 11.98828125 -23 11 C-21.54980469 11.03480469 -21.54980469 11.03480469 -20.0703125 11.0703125 C-12.4344481 11.17615616 -5.44188767 10.96115628 2 9 C2 6.36 2 3.72 2 1 C1.34 0.67 0.68 0.34 0 0 Z " fill="#DBDDE0" transform="translate(386,206)"/>
<path d="M0 0 C0 2.64 0 5.28 0 8 C-2.31 8.33 -4.62 8.66 -7 9 C-7.8125 7.3125 -7.8125 7.3125 -8 5 C-3.90909091 0 -3.90909091 0 0 0 Z " fill="#010420" transform="translate(522,207)"/>
<path d="M0 0 C4.91741794 0.43388982 7.5589194 2.5589194 11 6 C12 8.6875 12 8.6875 12 11 C11.34 11.66 10.68 12.32 10 13 C7 9.25 7 9.25 7 7 C6.360625 6.7525 5.72125 6.505 5.0625 6.25 C3 5 3 5 2.375 2.9375 C2.25125 2.298125 2.1275 1.65875 2 1 C1.34 0.67 0.68 0.34 0 0 Z " fill="#454851" transform="translate(185,171)"/>
<path d="M0 0 C0.99 0.33 1.98 0.66 3 1 C2.45730469 2.14597656 1.91460937 3.29195313 1.35546875 4.47265625 C0.63274719 6.00257332 -0.08990539 7.53252297 -0.8125 9.0625 C-1.16892578 9.81466797 -1.52535156 10.56683594 -1.89257812 11.34179688 C-4.0236639 15.85813463 -6.06233336 20.39727766 -8 25 C-9.32623712 21.37029842 -8.67479383 19.48857791 -7.12890625 16.015625 C-6.71962891 15.08105469 -6.31035156 14.14648438 -5.88867188 13.18359375 C-5.45103516 12.21550781 -5.01339844 11.24742188 -4.5625 10.25 C-3.9118457 8.77466797 -3.9118457 8.77466797 -3.24804688 7.26953125 C-2.17552334 4.84162082 -1.09257629 2.41893666 0 0 Z " fill="#A7ACAF" transform="translate(140,110)"/>
<path d="M0 0 C0.66 1.98 1.32 3.96 2 6 C1.278125 5.319375 0.55625 4.63875 -0.1875 3.9375 C-2.79990487 1.73259193 -2.79990487 1.73259193 -5.6875 2.0625 C-8.32620968 2.8797337 -8.32620968 2.8797337 -10 6 C-10.24107326 8.28648848 -10.24107326 8.28648848 -10.125 10.6875 C-10.10695312 11.49574219 -10.08890625 12.30398437 -10.0703125 13.13671875 C-10.04710937 13.75160156 -10.02390625 14.36648437 -10 15 C-12.58974814 12.73311171 -12.96856311 12.24251316 -13.4375 8.625 C-12.37835746 -0.15075248 -7.68558374 -0.73899844 0 0 Z " fill="#C5C7CC" transform="translate(232,177)"/>
<path d="M0 0 C0.99 0.33 1.98 0.66 3 1 C1.6176985 5.14690449 -0.65560035 6.31413634 -4.24609375 8.63671875 C-9.75563755 11.36413831 -15.90295353 12 -22 12 C-22 11.34 -22 10.68 -22 10 C-21.21496094 9.90203125 -20.42992187 9.8040625 -19.62109375 9.703125 C-11.98960088 8.61692479 -5.12033233 7.3251164 0 1 C0 0.67 0 0.34 0 0 Z " fill="#E5E8EA" transform="translate(161,124)"/>
<path d="M0 0 C3.3 0.33 6.6 0.66 10 1 C9.67 1.99 9.34 2.98 9 4 C3.63904667 5.12862175 -1.55306686 5.09688221 -7 5 C-7 5.66 -7 6.32 -7 7 C-7.99 6.67 -8.98 6.34 -10 6 C-10 5.34 -10 4.68 -10 4 C-8.95199219 3.90912109 -8.95199219 3.90912109 -7.8828125 3.81640625 C-6.97273437 3.73261719 -6.06265625 3.64882812 -5.125 3.5625 C-4.22007812 3.48128906 -3.31515625 3.40007812 -2.3828125 3.31640625 C0.01110861 3.13010715 0.01110861 3.13010715 2 2 C1.34 1.34 0.68 0.68 0 0 Z " fill="#C2C5CB" transform="translate(146,138)"/>
<path d="M0 0 C1.32 0 2.64 0 4 0 C4 1.32 4 2.64 4 4 C5.65 4 7.3 4 9 4 C8.67 5.98 8.34 7.96 8 10 C7.34 9.34 6.68 8.68 6 8 C4.01643517 7.28591666 2.01684563 6.61382258 0 6 C0 4.02 0 2.04 0 0 Z " fill="#818287" transform="translate(120,142)"/>
<path d="M0 0 C0.33 0 0.66 0 1 0 C2.25116279 6.50604651 2.25116279 6.50604651 1.0625 8.84375 C-0.32811296 11.6658763 -0.42099577 14.12193509 -0.625 17.25 C-0.69976562 18.32765625 -0.77453125 19.4053125 -0.8515625 20.515625 C-0.90054688 21.33546875 -0.94953125 22.1553125 -1 23 C-1.66 23 -2.32 23 -3 23 C-4.62594388 18.80677631 -5.50751388 16.35128224 -3.6875 12.125 C-2 9 -2 9 -1 8 C-0.76924918 6.65252916 -0.58846937 5.29622435 -0.4375 3.9375 C-0.293125 2.638125 -0.14875 1.33875 0 0 Z " fill="#252A35" transform="translate(132,120)"/>
<path d="M0 0 C0.74958984 0.05220703 1.49917969 0.10441406 2.27148438 0.15820312 C4.11887082 0.28763784 5.96574371 0.42436518 7.8125 0.5625 C7.8125 0.8925 7.8125 1.2225 7.8125 1.5625 C6.8225 1.59988281 5.8325 1.63726562 4.8125 1.67578125 C-2.28015966 2.0051923 -8.72885676 2.33317838 -15.1875 5.5625 C-15.5175 6.2225 -15.8475 6.8825 -16.1875 7.5625 C-15.1975 8.5525 -14.2075 9.5425 -13.1875 10.5625 C-15.6625 9.5725 -15.6625 9.5725 -18.1875 8.5625 C-18.0625 6.8125 -18.0625 6.8125 -17.1875 4.5625 C-11.24909091 0.04414526 -7.24262064 -0.55031266 0 0 Z " fill="#9A9B9D" transform="translate(116.1875,155.4375)"/>
<path d="M0 0 C0.66 0.33 1.32 0.66 2 1 C-5.10584791 7.87459251 -5.10584791 7.87459251 -11 8 C-14.375 7.5625 -14.375 7.5625 -17 7 C-13.98978254 4.99318836 -11.54938663 4.37350173 -8.06640625 3.578125 C-5.71423216 2.99049384 -5.71423216 2.99049384 -2.625 1.3125 C-1.325625 0.6628125 -1.325625 0.6628125 0 0 Z " fill="#BCCAC6" transform="translate(150,208)"/>
<path d="M0 0 C0.02698189 1.62490954 0.04638757 3.24994633 0.0625 4.875 C0.07410156 5.77992188 0.08570312 6.68484375 0.09765625 7.6171875 C0 10 0 10 -1 12 C-1.66 12 -2.32 12 -3 12 C-5.021829 7.95634201 -5.19150921 5.36886712 -4 1 C-2 0 -2 0 0 0 Z " fill="#C7D0D0" transform="translate(122,191)"/>
<path d="M0 0 C-2.41646006 5.43703515 -5.60220807 9.3703065 -11 12 C-11.99 12 -12.98 12 -14 12 C-14 12.66 -14 13.32 -14 14 C-14.66 14 -15.32 14 -16 14 C-14.84655597 10.53966792 -13.73787766 10.09274561 -10.7578125 8.25 C-8.00964419 6.29574698 -5.8091685 3.84946894 -3.515625 1.390625 C-2 0 -2 0 0 0 Z " fill="#E2E3E6" transform="translate(210,41)"/>
<path d="M0 0 C6.75 -0.125 6.75 -0.125 9 1 C8.67 4.63 8.34 8.26 8 12 C4.37 12 0.74 12 -3 12 C-3 11.67 -3 11.34 -3 11 C-0.03 11 2.94 11 6 11 C6 7.7 6 4.4 6 1 C4.02 1 2.04 1 0 1 C0 0.67 0 0.34 0 0 Z " fill="#DCDFE1" transform="translate(336,170)"/>
<path d="M0 0 C1.32 0.33 2.64 0.66 4 1 C4 2.98 4 4.96 4 7 C1.69 7.33 -0.62 7.66 -3 8 C-3 11.3 -3 14.6 -3 18 C-3.33 18 -3.66 18 -4 18 C-4.33 14.37 -4.66 10.74 -5 7 C-3.02 6.67 -1.04 6.34 1 6 C0.67 4.02 0.34 2.04 0 0 Z " fill="#D3D6D9" transform="translate(249,171)"/>
<path d="M0 0 C1.51400391 0.01740234 1.51400391 0.01740234 3.05859375 0.03515625 C4.07050781 0.04417969 5.08242188 0.05320313 6.125 0.0625 C7.29869141 0.07990234 7.29869141 0.07990234 8.49609375 0.09765625 C8.49609375 0.42765625 8.49609375 0.75765625 8.49609375 1.09765625 C7.820625 1.195625 7.14515625 1.29359375 6.44921875 1.39453125 C0.92486664 2.29498124 0.92486664 2.29498124 -4.00390625 4.78515625 C-5.93077182 7.75574068 -6.71176113 10.66502738 -7.50390625 14.09765625 C-7.83390625 14.09765625 -8.16390625 14.09765625 -8.50390625 14.09765625 C-9.11904821 6.83898117 -9.11904821 6.83898117 -6.06640625 3.16015625 C-5.22078125 2.47953125 -4.37515625 1.79890625 -3.50390625 1.09765625 C-2.50390625 0.09765625 -2.50390625 0.09765625 0 0 Z " fill="#ECEDEF" transform="translate(333.50390625,181.90234375)"/>
<path d="M0 0 C0.66 0.33 1.32 0.66 2 1 C0.70308182 4.89075454 -0.66776769 7.52462743 -4 10 C-6.75 9.75 -6.75 9.75 -9 9 C-7.68 8.67 -6.36 8.34 -5 8 C-4.67 6.35 -4.34 4.7 -4 3 C-3.34 3 -2.68 3 -2 3 C-2 2.34 -2 1.68 -2 1 C-1.34 0.67 -0.68 0.34 0 0 Z " fill="#11121E" transform="translate(158,74)"/>
<path d="M0 0 C1.32 0.33 2.64 0.66 4 1 C4 1.66 4 2.32 4 3 C3.01 3.66 2.02 4.32 1 5 C1.33 5.99 1.66 6.98 2 8 C0.35 9.65 -1.3 11.3 -3 13 C-2.67 13.66 -2.34 14.32 -2 15 C-3.32 14.34 -4.64 13.68 -6 13 C-6 12.34 -6 11.68 -6 11 C-3.5 9.375 -3.5 9.375 -1 8 C-1.309375 6.824375 -1.309375 6.824375 -1.625 5.625 C-1.74875 4.75875 -1.8725 3.8925 -2 3 C-1.34 2.34 -0.68 1.68 0 1 C0 0.67 0 0.34 0 0 Z " fill="#E0E2E5" transform="translate(143,154)"/>
<path d="M0 0 C0.66 0.33 1.32 0.66 2 1 C1.44449305 4.59905908 0.25112752 5.99909799 -2.5625 8.25 C-3.20316406 8.77078125 -3.84382812 9.2915625 -4.50390625 9.828125 C-4.99761719 10.21484375 -5.49132812 10.6015625 -6 11 C-6.33 9.68 -6.66 8.36 -7 7 C-5.47005208 5.76302083 -3.94010417 4.52604167 -2.41015625 3.2890625 C-0.86733563 2.0333609 -0.86733563 2.0333609 0 0 Z " fill="#0A0F1F" transform="translate(194,205)"/>
<path d="M0 0 C2.05859375 -0.328125 2.05859375 -0.328125 4.4375 -0.25 C5.61119141 -0.22679687 5.61119141 -0.22679687 6.80859375 -0.203125 C9 0 9 0 12 1 C11.67 1.99 11.34 2.98 11 4 C9.02 4 7.04 4 5 4 C4.67 3.34 4.34 2.68 4 2 C2.02 2.33 0.04 2.66 -2 3 C-1.34 2.01 -0.68 1.02 0 0 Z " fill="#696B73" transform="translate(281,170)"/>
<path d="M0 0 C0.99 0 1.98 0 3 0 C2.67 2.64 2.34 5.28 2 8 C0.68 8 -0.64 8 -2 8 C-2.66 7.01 -3.32 6.02 -4 5 C-3.67 4.01 -3.34 3.02 -3 2 C-2.01 3.485 -2.01 3.485 -1 5 C-0.67 3.35 -0.34 1.7 0 0 Z " fill="#CED5D3" transform="translate(114,187)"/>
<path d="M0 0 C0.66 0 1.32 0 2 0 C2 0.66 2 1.32 2 2 C2.66 2 3.32 2 4 2 C5 5 5 5 4.0625 7.1875 C3.5365625 8.0846875 3.5365625 8.0846875 3 9 C3.99 9 4.98 9 6 9 C5.67 9.99 5.34 10.98 5 12 C4.01 12 3.02 12 2 12 C0.86235649 7.73383684 0 4.43513689 0 0 Z " fill="#DEE4E1" transform="translate(122,184)"/>
<path d="M0 0 C2.69082872 0.17635452 5.32851446 0.61835921 8 1 C8 1.66 8 2.32 8 3 C2.82421875 6.22265625 2.82421875 6.22265625 1 7 C0.01 6.67 -0.98 6.34 -2 6 C-0.68 5.34 0.64 4.68 2 4 C1.01 3.01 0.02 2.02 -1 1 C-0.67 0.67 -0.34 0.34 0 0 Z " fill="#E3E6EB" transform="translate(142,147)"/>
<path d="M0 0 C0.33 0.66 0.66 1.32 1 2 C-0.2375 1.9175 -1.475 1.835 -2.75 1.75 C-5.90950713 1.75 -6.74191764 1.80983405 -9.375 3.75 C-10.84368115 5.78355851 -12.01314721 7.69734349 -13 10 C-14.12924853 6.70635844 -14.18232588 5.39069832 -12.6875 2.1875 C-8.69436349 -1.06272739 -4.95998106 -0.42595257 0 0 Z " fill="#DFE1E4" transform="translate(509,179)"/>
<path d="M0 0 C1.5 1.375 1.5 1.375 3 3 C3 3.66 3 4.32 3 5 C4.65 5 6.3 5 8 5 C8 5.33 8 5.66 8 6 C0.74 6 -6.52 6 -14 6 C-14 5.67 -14 5.34 -14 5 C-9.38 5 -4.76 5 0 5 C0 3.35 0 1.7 0 0 Z " fill="#C5C6C8" transform="translate(125,149)"/>
<path d="M0 0 C0 0.66 0 1.32 0 2 C0.66 2.33 1.32 2.66 2 3 C-1.37097383 4.49821059 -3.20442119 5 -7 5 C-7 3.68 -7 2.36 -7 1 C-4.50935112 0.31292445 -2.62113708 0 0 0 Z " fill="#171825" transform="translate(144,215)"/>
<path d="M0 0 C0.33 0 0.66 0 1 0 C1 8.58 1 17.16 1 26 C0.01 26 -0.98 26 -2 26 C-1.505 24.515 -1.505 24.515 -1 23 C-0.85164052 21.22833025 -0.75229982 19.45232388 -0.68359375 17.67578125 C-0.64169922 16.64775391 -0.59980469 15.61972656 -0.55664062 14.56054688 C-0.51732422 13.48869141 -0.47800781 12.41683594 -0.4375 11.3125 C-0.39431641 10.22904297 -0.35113281 9.14558594 -0.30664062 8.02929688 C-0.20053162 5.35299209 -0.09847639 2.67659474 0 0 Z " fill="#000214" transform="translate(323,190)"/>
<path d="M0 0 C7.26 0 14.52 0 22 0 C22 0.33 22 0.66 22 1 C17.545 1.495 17.545 1.495 13 2 C13 2.99 13 3.98 13 5 C12.34 5 11.68 5 11 5 C10.67 4.01 10.34 3.02 10 2 C6.7 1.67 3.4 1.34 0 1 C0 0.67 0 0.34 0 0 Z " fill="#0A1B34" transform="translate(108,168)"/>
<path d="M0 0 C0.33 0.66 0.66 1.32 1 2 C1.99 2.33 2.98 2.66 4 3 C2.25 6.875 2.25 6.875 0 8 C-1.99960012 8.039992 -4.00047242 8.04346799 -6 8 C-5.38125 7.79375 -4.7625 7.5875 -4.125 7.375 C-1.15346355 5.45224112 -0.86975341 3.33405473 0 0 Z " fill="#0B0D16" transform="translate(139,157)"/>
<path d="M0 0 C0.99 0 1.98 0 3 0 C1.880462 2.51896049 0.68018448 4.39734655 -1.0625 6.5625 C-3.16384349 8.92026019 -3.16384349 8.92026019 -4 12 C-4.99 11.67 -5.98 11.34 -7 11 C-5.90902202 9.15878785 -4.80180749 7.32718744 -3.6875 5.5 C-3.07261719 4.4790625 -2.45773437 3.458125 -1.82421875 2.40625 C-1.22222656 1.6121875 -0.62023437 0.818125 0 0 Z " fill="#E6E7EA" transform="translate(461,196)"/>
<path d="M0 0 C0.66 0.33 1.32 0.66 2 1 C-2.56140642 5.7186963 -7.74783049 6.26445065 -14 7 C-14.99 7 -15.98 7 -17 7 C-17 6.34 -17 5.68 -17 5 C-16.03900391 4.96132812 -16.03900391 4.96132812 -15.05859375 4.921875 C-8.87508426 4.51639897 -5.22126403 3.26329002 0 0 Z " fill="#D2D6D9" transform="translate(180,84)"/>
<path d="M0 0 C0.33 0.66 0.66 1.32 1 2 C0.0390625 4.20703125 0.0390625 4.20703125 -1.375 6.8125 C-3.22802192 10.2338617 -4.40475612 13.14475766 -5 17 C-6.65 16.67 -8.3 16.34 -10 16 C-9.46375 15.401875 -8.9275 14.80375 -8.375 14.1875 C-5.05947503 9.73771649 -2.57679389 4.90449771 0 0 Z " fill="#9F9FA4" transform="translate(166,59)"/>
<path d="M0 0 C0 1.32 0 2.64 0 4 C-3.3 3.67 -6.6 3.34 -10 3 C-9.67 2.34 -9.34 1.68 -9 1 C-5.85554549 0.15014743 -3.29227921 0 0 0 Z " fill="#0B0C18" transform="translate(137,217)"/>
<path d="M0 0 C3.24208567 0.35049575 4.61527704 0.56221181 6.8125 3.0625 C7.204375 3.701875 7.59625 4.34125 8 5 C6.02 4.34 4.04 3.68 2 3 C1.67 3.99 1.34 4.98 1 6 C-1.97 6 -4.94 6 -8 6 C-8 5.67 -8 5.34 -8 5 C-5.69 5 -3.38 5 -1 5 C-0.67 3.35 -0.34 1.7 0 0 Z " fill="#D9DDDF" transform="translate(269,212)"/>
<path d="M0 0 C0.763125 0.0825 1.52625 0.165 2.3125 0.25 C1.6525 2.23 0.9925 4.21 0.3125 6.25 C-1.6675 5.59 -3.6475 4.93 -5.6875 4.25 C-3.34903846 0.31153846 -3.34903846 0.31153846 0 0 Z " fill="#090A15" transform="translate(224.6875,4.75)"/>
<path d="M0 0 C0.33 0 0.66 0 1 0 C1 3.63 1 7.26 1 11 C-2.96 11 -6.92 11 -11 11 C-11 10.67 -11 10.34 -11 10 C-9.72125 9.87625 -8.4425 9.7525 -7.125 9.625 C-3.65209064 9.30957601 -3.65209064 9.30957601 -1 7 C-0.59952556 4.67724823 -0.2602896 2.34260643 0 0 Z " fill="#00010D" transform="translate(523,185)"/>
<path d="M0 0 C0 0.33 0 0.66 0 1 C-1.27875 1.20625 -2.5575 1.4125 -3.875 1.625 C-6.07366201 2.09551197 -6.07366201 2.09551197 -8 3 C-9.71455695 5.89029616 -9.71455695 5.89029616 -10 9 C-9.67 9.66 -9.34 10.32 -9 11 C-9.99 10.67 -10.98 10.34 -12 10 C-12.31424507 6.54330418 -12.37956836 4.60098323 -10.5 1.625 C-6.86748926 -0.73613198 -4.28156703 -0.2854378 0 0 Z " fill="#F0F1F3" transform="translate(374,179)"/>
<path d="M0 0 C0.6875 1.8125 0.6875 1.8125 1 4 C-0.25 5.75 -0.25 5.75 -2 7 C-2.99 7 -3.98 7 -5 7 C-5.99 7.66 -6.98 8.32 -8 9 C-6.4169423 4.7257442 -3.49431596 2.73468206 0 0 Z " fill="#EBECED" transform="translate(179,54)"/>
<path d="M0 0 C0.99 0.33 1.98 0.66 3 1 C0.69 3.97 -1.62 6.94 -4 10 C-5 7 -5 7 -3.6875 3.875 C-2 1 -2 1 0 0 Z " fill="#0F101D" transform="translate(166,64)"/>
<path d="M0 0 C0.66 0.33 1.32 0.66 2 1 C1.07265428 2.48555383 0.13275187 3.96327506 -0.8125 5.4375 C-1.33457031 6.26121094 -1.85664063 7.08492187 -2.39453125 7.93359375 C-4 10 -4 10 -7 11 C-5.5140084 6.40693504 -3.14985318 3.56430755 0 0 Z " fill="#F0F1F3" transform="translate(429,184)"/>
<path d="M0 0 C0.66 0 1.32 0 2 0 C0.7580393 3.43927579 -0.55740284 6.25207819 -3 9 C-3.66 9 -4.32 9 -5 9 C-5 9.66 -5 10.32 -5 11 C-5.66 10.67 -6.32 10.34 -7 10 C-5.88321917 8.3278148 -4.75633648 6.66237197 -3.625 5 C-2.99851563 4.071875 -2.37203125 3.14375 -1.7265625 2.1875 C-1.15679687 1.465625 -0.58703125 0.74375 0 0 Z " fill="#F3F3F4" transform="translate(162,73)"/>
<path d="M0 0 C0.33 1.32 0.66 2.64 1 4 C-2.5087188 7.09592835 -5.49197399 8.74194623 -10 10 C-7.86274108 7.78358334 -5.73140926 5.78762592 -3.3125 3.875 C-0.93242212 2.20909046 -0.93242212 2.20909046 0 0 Z " fill="#E5E7E9" transform="translate(248,227)"/>
<path d="M0 0 C0.66 0 1.32 0 2 0 C2 0.66 2 1.32 2 2 C1.01 2.495 1.01 2.495 0 3 C-0.65213292 5.02463255 -0.65213292 5.02463255 -1 7 C-2.98 7.33 -4.96 7.66 -7 8 C-6.02133662 6.85373678 -5.04205413 5.70800212 -4.0625 4.5625 C-3.51722656 3.92441406 -2.97195312 3.28632813 -2.41015625 2.62890625 C-1.63204305 1.73008851 -0.84063472 0.84063472 0 0 Z " fill="#9BA6AA" transform="translate(119,173)"/>
<path d="M0 0 C1.32 0.33 2.64 0.66 4 1 C4 1.99 4 2.98 4 4 C4.99 4.66 5.98 5.32 7 6 C3.25 9 3.25 9 1 9 C1.020625 8.071875 1.04125 7.14375 1.0625 6.1875 C1.15769604 2.97713989 1.15769604 2.97713989 0 0 Z " fill="#4B576A" transform="translate(138,145)"/>
<path d="M0 0 C1.23556641 0.01740234 1.23556641 0.01740234 2.49609375 0.03515625 C3.32238281 0.04417969 4.14867187 0.05320313 5 0.0625 C5.63808594 0.07410156 6.27617187 0.08570313 6.93359375 0.09765625 C6.93359375 0.75765625 6.93359375 1.41765625 6.93359375 2.09765625 C5.98484375 2.07703125 5.03609375 2.05640625 4.05859375 2.03515625 C1.02693092 1.87213799 1.02693092 1.87213799 -1.06640625 3.09765625 C-1.06640625 4.08765625 -1.06640625 5.07765625 -1.06640625 6.09765625 C-1.72640625 6.09765625 -2.38640625 6.09765625 -3.06640625 6.09765625 C-3.10912725 4.4315372 -3.10704457 2.7638274 -3.06640625 1.09765625 C-2.06640625 0.09765625 -2.06640625 0.09765625 0 0 Z " fill="#CACED3" transform="translate(223.06640625,200.90234375)"/>
<path d="M0 0 C0.66 0.33 1.32 0.66 2 1 C2.36923077 7.52307692 2.36923077 7.52307692 0.5 9.9375 C0.005 10.288125 -0.49 10.63875 -1 11 C-1.66 10.67 -2.32 10.34 -3 10 C-2.34 9.01 -1.68 8.02 -1 7 C-0.60612212 4.67612053 -0.26513915 2.34206251 0 0 Z " fill="#F9FAFA" transform="translate(475,172)"/>
<path d="M0 0 C2.64 0 5.28 0 8 0 C7 3 7 3 5.125 4.25 C3 5 3 5 0 4 C0 2.68 0 1.36 0 0 Z " fill="#151724" transform="translate(192,54)"/>
<path d="M0 0 C0 3.99282941 -1.47808076 5.15331592 -4 8.1875 C-4.7425 9.08855469 -5.485 9.98960938 -6.25 10.91796875 C-6.8275 11.60503906 -7.405 12.29210938 -8 13 C-8.66 12.34 -9.32 11.68 -10 11 C-6.7 7.37 -3.4 3.74 0 0 Z " fill="#BFC2C4" transform="translate(201,27)"/>
<path d="M0 0 C3.25597758 0.24118352 4.7276304 1.52224212 6.8125 3.875 C7.534375 4.90625 8.25625 5.9375 9 7 C8.67 7.99 8.34 8.98 8 10 C7.67 8.68 7.34 7.36 7 6 C6.34 6 5.68 6 5 6 C5 5.34 5 4.68 5 4 C2.525 3.01 2.525 3.01 0 2 C0 1.34 0 0.68 0 0 Z " fill="#050910" transform="translate(380,173)"/>
<path d="M0 0 C0.66 0 1.32 0 2 0 C2.36923077 6.52307692 2.36923077 6.52307692 0.5 8.9375 C0.005 9.288125 -0.49 9.63875 -1 10 C-1.99 9.67 -2.98 9.34 -4 9 C-3.67 8.01 -3.34 7.02 -3 6 C-3 6.66 -3 7.32 -3 8 C-2.34 8 -1.68 8 -1 8 C-0.67 5.36 -0.34 2.72 0 0 Z " fill="#9DA9A8" transform="translate(129,184)"/>
<path d="M0 0 C2.31 0 4.62 0 7 0 C7 0.99 7 1.98 7 3 C6.01 3 5.02 3 4 3 C4 3.66 4 4.32 4 5 C2.68 4.34 1.36 3.68 0 3 C0 2.01 0 1.02 0 0 Z " fill="#C7CFCB" transform="translate(114,181)"/>
<path d="M0 0 C3.91402949 1.26941497 5.79072873 2.51167694 8 6 C4.38462395 6 2.88834003 5.10770759 0 3 C0 2.01 0 1.02 0 0 Z " fill="#040713" transform="translate(513,172)"/>
<path d="M0 0 C0 3 0 3 -2.5 5.6875 C-3.325 6.450625 -4.15 7.21375 -5 8 C-5.99 7.67 -6.98 7.34 -8 7 C-5.36 4.69 -2.72 2.38 0 0 Z " fill="#F4F4F5" transform="translate(189,76)"/>
<path d="M0 0 C0.66 0 1.32 0 2 0 C0.87548273 2.9719385 -0.22293791 5.33440687 -2 8 C-2.99 7.67 -3.98 7.34 -5 7 C-4.21654285 5.82780457 -3.42297164 4.66236332 -2.625 3.5 C-2.18414062 2.8503125 -1.74328125 2.200625 -1.2890625 1.53125 C-0.65097656 0.77328125 -0.65097656 0.77328125 0 0 Z " fill="#F2F2F4" transform="translate(214,33)"/>
<path d="M0 0 C0.66 0.33 1.32 0.66 2 1 C-0.97 4.96 -0.97 4.96 -4 9 C-4.99 8.34 -5.98 7.68 -7 7 C-4.69 4.69 -2.38 2.38 0 0 Z " fill="#050711" transform="translate(208,15)"/>
<path d="M0 0 C0.66 0 1.32 0 2 0 C2 2.64 2 5.28 2 8 C0.68 8 -0.64 8 -2 8 C-1.34 5.36 -0.68 2.72 0 0 Z " fill="#03081A" transform="translate(473,208)"/>
<path d="M0 0 C0.33 0 0.66 0 1 0 C1.66 3.96 2.32 7.92 3 12 C2.01 12 1.02 12 0 12 C0.33 11.34 0.66 10.68 1 10 C0.484375 9.05125 -0.03125 8.1025 -0.5625 7.125 C-2 4 -2 4 -1.1875 1.625 C-0.795625 1.08875 -0.40375 0.5525 0 0 Z " fill="#9A9EA7" transform="translate(212,204)"/>
<path d="M0 0 C3.77727089 1.81309003 7.37269822 3.9073259 11 6 C10.67 6.66 10.34 7.32 10 8 C4.98886765 6.5682479 3.05530451 4.01554307 0 0 Z " fill="#B7C5C6" transform="translate(101,202)"/>
<path d="M0 0 C0.66 0 1.32 0 2 0 C2.08133791 1.91595968 2.13934367 3.83291932 2.1875 5.75 C2.22230469 6.81734375 2.25710938 7.8846875 2.29296875 8.984375 C1.97082786 12.30027855 1.22851086 13.59016673 -1 16 C-1.042721 14.33388095 -1.04063832 12.66617115 -1 11 C-0.67 10.67 -0.34 10.34 0 10 C0.07205511 8.31391034 0.08386068 6.62499341 0.0625 4.9375 C0.05347656 4.01839844 0.04445313 3.09929687 0.03515625 2.15234375 C0.02355469 1.44207031 0.01195312 0.73179687 0 0 Z " fill="#7C7E85" transform="translate(290,189)"/>
<path d="M0 0 C0.33 0 0.66 0 1 0 C1 3.96 1 7.92 1 12 C-0.65 12 -2.3 12 -4 12 C-3.67 11.34 -3.34 10.68 -3 10 C-2.34 10 -1.68 10 -1 10 C-0.67 6.7 -0.34 3.4 0 0 Z " fill="#000211" transform="translate(389,184)"/>
<path d="M0 0 C2.9375 0.75 2.9375 0.75 6 2 C6.875 4.125 6.875 4.125 7 6 C5.35 6.33 3.7 6.66 2 7 C2.99 6.01 3.98 5.02 5 4 C2.525 3.01 2.525 3.01 0 2 C0 1.34 0 0.68 0 0 Z " fill="#C7C7C9" transform="translate(131,157)"/>
<path d="M0 0 C1.32 0 2.64 0 4 0 C3.25 4.75 3.25 4.75 1 7 C-0.0625 5.1875 -0.0625 5.1875 -1 3 C-0.67 2.01 -0.34 1.02 0 0 Z " fill="#14141D" transform="translate(145,91)"/>
<path d="M0 0 C2.475 0.495 2.475 0.495 5 1 C4.6875 3.375 4.6875 3.375 4 6 C3.01 6.66 2.02 7.32 1 8 C1.20625 7.05125 1.4125 6.1025 1.625 5.125 C1.74875 4.09375 1.8725 3.0625 2 2 C1.34 1.34 0.68 0.68 0 0 Z " fill="#E1E2E3" transform="translate(171,94)"/>
<path d="M0 0 C0.99 0.66 1.98 1.32 3 2 C1.68 3.65 0.36 5.3 -1 7 C-1.66 6.67 -2.32 6.34 -3 6 C-2.01 4.02 -1.02 2.04 0 0 Z " fill="#030713" transform="translate(74,176)"/>
<path d="M0 0 C0.66 0 1.32 0 2 0 C0.70700306 2.88437779 -0.65941363 4.87219421 -3 7 C-3.99 6.67 -4.98 6.34 -6 6 C-4.625 4.5 -4.625 4.5 -3 3 C-2.34 3 -1.68 3 -1 3 C-0.67 2.01 -0.34 1.02 0 0 Z " fill="#787986" transform="translate(334,171)"/>
<path d="M0 0 C0.99 0.33 1.98 0.66 3 1 C1.86280581 4.41158256 0.95657056 5.11854601 -2 7 C-2.66 7 -3.32 7 -4 7 C-2.84826645 4.53199953 -1.95216435 2.95216435 0 1 C0 0.67 0 0.34 0 0 Z " fill="#F2F2F4" transform="translate(161,124)"/>
<path d="M0 0 C0 4.38968456 -2.12805101 5.76905739 -5 9 C-5.33 8.01 -5.66 7.02 -6 6 C-4.02 4.02 -2.04 2.04 0 0 Z " fill="#DCDEDE" transform="translate(191,39)"/>
<path d="M0 0 C-0.8125 1.9375 -0.8125 1.9375 -2 4 C-2.99 4.33 -3.98 4.66 -5 5 C-5.66 4.34 -6.32 3.68 -7 3 C-4.49955934 -0.00052879 -4.2621484 0 0 0 Z " fill="#373946" transform="translate(205,23)"/>
<path d="M0 0 C0.99 0 1.98 0 3 0 C3 2.64 3 5.28 3 8 C2.01 8.33 1.02 8.66 0 9 C0 7.68 0 6.36 0 5 C0.66 5 1.32 5 2 5 C1.34 3.35 0.68 1.7 0 0 Z " fill="#191E2C" transform="translate(519,207)"/>
<path d="M0 0 C3.37462715 0.54723683 5.08235 1.0549 8 3 C7.67 3.66 7.34 4.32 7 5 C4.69 4.01 2.38 3.02 0 2 C0 1.34 0 0.68 0 0 Z " fill="#919B9F" transform="translate(122,178)"/>
<path d="M0 0 C3.96 0 7.92 0 12 0 C8.16399713 1.91800144 7.02507754 2.20641423 3 2 C2.01 2 1.02 2 0 2 C0 1.34 0 0.68 0 0 Z " fill="#000111" transform="translate(366,171)"/>
<path d="M0 0 C0.66 0.33 1.32 0.66 2 1 C2 2.32 2 3.64 2 5 C0.02 5.99 0.02 5.99 -2 7 C-2.125 4.625 -2.125 4.625 -2 2 C-1.34 1.34 -0.68 0.68 0 0 Z " fill="#0A0D22" transform="translate(142,95)"/>
</svg>
